<svg xmlns="http://www.w3.org/2000/svg" viewBox="0 0 1200 400" font-family="Helvetica,sans-serif">
<rect width="1200" height="400" fill="#0d1117"/>
<text x="600" y="26" text-anchor="middle" font-size="11" fill="#8b949e">430 games, 309 wins, 6 draws, 115 losses</text>
<rect x="62" y="44" width="1114" height="26.3" fill="#d29922" fill-opacity="0.06"/>
<line x1="62" y1="70.3" x2="1176" y2="70.3" stroke="#d29922" stroke-width="1" stroke-dasharray="4 4"/>
<text x="1172" y="65.3" text-anchor="end" font-size="11" fill="#d29922">guardian 2200</text>
<rect x="62" y="44" width="1114" height="118.5" fill="#58a6ff" fill-opacity="0.06"/>
<line x1="62" y1="162.5" x2="1176" y2="162.5" stroke="#58a6ff" stroke-width="1" stroke-dasharray="4 4"/>
<text x="1172" y="157.5" text-anchor="end" font-size="11" fill="#58a6ff">knight 1850</text>
<line x1="62" y1="360.0" x2="1176" y2="360.0" stroke="#21262d" stroke-width="1"/>
<text x="54" y="364.0" text-anchor="end" font-size="11" fill="#8b949e">1100</text>
<line x1="62" y1="333.7" x2="1176" y2="333.7" stroke="#21262d" stroke-width="1"/>
<text x="54" y="337.7" text-anchor="end" font-size="11" fill="#8b949e">1200</text>
<line x1="62" y1="307.3" x2="1176" y2="307.3" stroke="#21262d" stroke-width="1"/>
<text x="54" y="311.3" text-anchor="end" font-size="11" fill="#8b949e">1300</text>
<line x1="62" y1="281.0" x2="1176" y2="281.0" stroke="#21262d" stroke-width="1"/>
<text x="54" y="285.0" text-anchor="end" font-size="11" fill="#8b949e">1400</text>
<line x1="62" y1="254.7" x2="1176" y2="254.7" stroke="#21262d" stroke-width="1"/>
<text x="54" y="258.7" text-anchor="end" font-size="11" fill="#8b949e">1500</text>
<line x1="62" y1="228.3" x2="1176" y2="228.3" stroke="#21262d" stroke-width="1"/>
<text x="54" y="232.3" text-anchor="end" font-size="11" fill="#8b949e">1600</text>
<line x1="62" y1="202.0" x2="1176" y2="202.0" stroke="#21262d" stroke-width="1"/>
<text x="54" y="206.0" text-anchor="end" font-size="11" fill="#8b949e">1700</text>
<line x1="62" y1="175.7" x2="1176" y2="175.7" stroke="#21262d" stroke-width="1"/>
<text x="54" y="179.7" text-anchor="end" font-size="11" fill="#8b949e">1800</text>
<line x1="62" y1="149.3" x2="1176" y2="149.3" stroke="#21262d" stroke-width="1"/>
<text x="54" y="153.3" text-anchor="end" font-size="11" fill="#8b949e">1900</text>
<line x1="62" y1="123.0" x2="1176" y2="123.0" stroke="#21262d" stroke-width="1"/>
<text x="54" y="127.0" text-anchor="end" font-size="11" fill="#8b949e">2000</text>
<line x1="62" y1="96.7" x2="1176" y2="96.7" stroke="#21262d" stroke-width="1"/>
<text x="54" y="100.7" text-anchor="end" font-size="11" fill="#8b949e">2100</text>
<line x1="62" y1="70.3" x2="1176" y2="70.3" stroke="#21262d" stroke-width="1"/>
<text x="54" y="74.3" text-anchor="end" font-size="11" fill="#8b949e">2200</text>
<line x1="62" y1="44.0" x2="1176" y2="44.0" stroke="#21262d" stroke-width="1"/>
<text x="54" y="48.0" text-anchor="end" font-size="11" fill="#8b949e">2300</text>
<line x1="157.5" y1="44" x2="157.5" y2="360" stroke="#21262d" stroke-width="1"/>
<text x="157.5" y="378" text-anchor="middle" font-size="11" fill="#8b949e">Nov 25</text>
<line x1="253.0" y1="44" x2="253.0" y2="360" stroke="#21262d" stroke-width="1"/>
<text x="253.0" y="378" text-anchor="middle" font-size="11" fill="#8b949e">Dec 25</text>
<line x1="351.6" y1="44" x2="351.6" y2="360" stroke="#21262d" stroke-width="1"/>
<text x="351.6" y="378" text-anchor="middle" font-size="11" fill="#8b949e">Jan 26</text>
<line x1="450.3" y1="44" x2="450.3" y2="360" stroke="#21262d" stroke-width="1"/>
<text x="450.3" y="378" text-anchor="middle" font-size="11" fill="#8b949e">Feb 26</text>
<line x1="539.4" y1="44" x2="539.4" y2="360" stroke="#21262d" stroke-width="1"/>
<text x="539.4" y="378" text-anchor="middle" font-size="11" fill="#8b949e">Mar 26</text>
<line x1="638.1" y1="44" x2="638.1" y2="360" stroke="#21262d" stroke-width="1"/>
<text x="638.1" y="378" text-anchor="middle" font-size="11" fill="#8b949e">Apr 26</text>
<line x1="733.6" y1="44" x2="733.6" y2="360" stroke="#21262d" stroke-width="1"/>
<text x="733.6" y="378" text-anchor="middle" font-size="11" fill="#8b949e">May 26</text>
<line x1="832.3" y1="44" x2="832.3" y2="360" stroke="#21262d" stroke-width="1"/>
<text x="832.3" y="378" text-anchor="middle" font-size="11" fill="#8b949e">Jun 26</text>
<line x1="927.7" y1="44" x2="927.7" y2="360" stroke="#21262d" stroke-width="1"/>
<text x="927.7" y="378" text-anchor="middle" font-size="11" fill="#8b949e">Jul 26</text>
<line x1="1026.4" y1="44" x2="1026.4" y2="360" stroke="#21262d" stroke-width="1"/>
<text x="1026.4" y="378" text-anchor="middle" font-size="11" fill="#8b949e">Aug 26</text>
<line x1="1125.1" y1="44" x2="1125.1" y2="360" stroke="#21262d" stroke-width="1"/>
<text x="1125.1" y="378" text-anchor="middle" font-size="11" fill="#8b949e">Sep 26</text>
<polyline points="62.0,311.7 65.2,304.4 68.4,296.0 71.5,283.6 74.7,261.1 77.9,253.1 81.1,239.2 84.3,218.7 87.5,206.0 90.6,208.3 93.8,235.3 97.0,220.1 100.2,224.4 103.4,238.1 106.6,252.5 109.7,230.2 112.9,235.9 116.1,243.0 119.3,240.0 122.5,238.9 125.7,238.4 128.8,232.4 135.2,230.1 138.4,211.3 141.6,219.0 144.8,234.5 147.9,230.2 151.1,230.9 154.3,237.8 157.5,229.1 160.7,240.3 163.9,240.4 167.0,236.4 170.2,225.4 173.4,202.4 176.6,200.1 179.8,196.4 182.9,202.8 186.1,221.5 189.3,231.2 192.5,227.0 195.7,222.9 202.0,220.1 240.2,218.5 262.5,217.8" fill="none" stroke="#3fb950" stroke-width="2" stroke-opacity="0.7"/>
<polyline points="606.3,213.5 609.5,212.8 612.6,212.1 682.7,211.3 685.8,207.3 701.8,213.8 704.9,221.5" fill="none" stroke="#3fb950" stroke-width="2" stroke-opacity="0.7"/>
<polyline points="937.3,220.0 940.5,227.5" fill="none" stroke="#3fb950" stroke-width="2" stroke-opacity="0.7"/>
<polyline points="1064.6,207.3 1080.5,216.3 1083.7,214.3 1086.9,214.6 1090.1,206.4 1096.4,207.3 1099.6,207.6 1109.2,200.8 1112.3,201.5 1115.5,208.5 1125.1,204.0 1131.4,213.1 1144.2,208.5 1147.4,220.7 1150.5,219.9 1153.7,220.0 1163.3,209.7 1166.5,200.1 1172.8,201.9 1176.0,204.4" fill="none" stroke="#3fb950" stroke-width="2" stroke-opacity="0.7"/>
<polyline points="74.7,294.8 77.9,265.5 81.1,254.2 84.3,246.2 87.5,238.4 90.6,227.5 93.8,224.5 97.0,220.6 100.2,219.1 103.4,220.5 106.6,226.3 109.7,230.9 112.9,232.9 116.1,234.2 119.3,234.8 122.5,235.0 125.7,237.2 128.8,237.6 135.2,237.7 138.4,237.6 141.6,234.1 144.8,231.5 147.9,230.9 151.1,229.9 154.3,229.2 157.5,228.7 160.7,228.8 163.9,231.5 167.0,233.9 170.2,236.3 173.4,232.7 176.6,228.9 179.8,224.9 182.9,223.1 186.1,218.3 189.3,216.7 192.5,216.3 195.7,216.1 202.0,215.9 240.2,215.6 262.5,215.3" fill="none" stroke="#e3b341" stroke-width="2" stroke-opacity="1"/>
<polyline points="606.3,214.8 609.5,214.3 612.6,213.9 682.7,213.4 685.8,212.8 701.8,211.3 704.9,211.3" fill="none" stroke="#e3b341" stroke-width="2" stroke-opacity="1"/>
<polyline points="937.3,211.2 940.5,211.4" fill="none" stroke="#e3b341" stroke-width="2" stroke-opacity="1"/>
<polyline points="1064.6,211.1 1080.5,211.4 1083.7,211.6 1086.9,211.8 1090.1,211.9 1096.4,212.1 1099.6,212.2 1109.2,212.3 1112.3,212.7 1115.5,213.1 1125.1,213.4 1131.4,213.7 1144.2,213.7 1147.4,213.4 1150.5,213.2 1153.7,213.1 1163.3,212.6 1166.5,211.2 1172.8,210.5 1176.0,210.2" fill="none" stroke="#e3b341" stroke-width="2" stroke-opacity="1"/>
<polyline points="68.4,349.6 71.5,344.9 74.7,342.7 77.9,345.0 81.1,328.1 84.3,294.2 87.5,282.3 90.6,276.4 93.8,304.9 97.0,320.6 100.2,318.2 103.4,310.2 106.6,325.8 109.7,311.8 112.9,324.9 116.1,329.6 119.3,326.7 122.5,326.5 125.7,325.4 128.8,326.3 135.2,324.8 138.4,296.6 141.6,295.4 144.8,302.4 147.9,304.4 151.1,316.0 154.3,330.6 157.5,321.3 160.7,330.6 163.9,335.0 167.0,328.3 170.2,319.9 173.4,294.3 176.6,294.3 179.8,291.0 182.9,299.6 186.1,322.5 189.3,336.4 192.5,331.5 195.7,332.0 202.0,333.2 240.2,332.6 262.5,333.1" fill="none" stroke="#f778ba" stroke-width="2" stroke-opacity="1"/>
<polyline points="606.3,328.9 609.5,328.4 612.6,328.3 682.7,328.3 685.8,324.7 701.8,325.6 704.9,328.7" fill="none" stroke="#f778ba" stroke-width="2" stroke-opacity="1"/>
<polyline points="937.3,328.3 940.5,332.3" fill="none" stroke="#f778ba" stroke-width="2" stroke-opacity="1"/>
<polyline points="1064.6,282.8 1080.5,282.0 1083.7,278.0 1086.9,272.4 1090.1,264.4 1096.4,252.1 1099.6,249.0 1109.2,238.7 1112.3,238.9 1115.5,245.5 1125.1,242.0 1131.4,234.9 1144.2,238.5 1147.4,257.7 1150.5,254.2 1153.7,248.2 1163.3,241.5 1166.5,252.5 1172.8,255.6 1176.0,259.2" fill="none" stroke="#f778ba" stroke-width="2" stroke-opacity="1"/>
<line x1="62" y1="26" x2="78" y2="26" stroke="#3fb950" stroke-width="2"/>
<text x="84" y="30" font-size="11" fill="#8b949e">elo</text>
<line x1="114.6" y1="26" x2="130.6" y2="26" stroke="#e3b341" stroke-width="2"/>
<text x="136.6" y="30" font-size="11" fill="#8b949e">60 game moving average</text>
<line x1="285.0" y1="26" x2="301.0" y2="26" stroke="#f778ba" stroke-width="2"/>
<text x="307.0" y="30" font-size="11" fill="#8b949e">proven rating, last 30 first sights</text>
<text x="1176.0" y="275.2" text-anchor="end" font-size="12" fill="#f778ba">1483</text>
<circle cx="1176.0" cy="204.4" r="4" fill="#3fb950"/>
<text x="1176.0" y="192.4" text-anchor="end" font-size="12" fill="#3fb950">1691</text>
</svg>
