<svg xmlns="http://www.w3.org/2000/svg" viewBox="0 0 1200 400" font-family="Helvetica,sans-serif">
<rect width="1200" height="400" fill="#0d1117"/>
<text x="600" y="26" text-anchor="middle" font-size="11" fill="#8b949e">653 games, 468 wins, 4 draws, 181 losses</text>
<rect x="62" y="44" width="1114" height="26.3" fill="#d29922" fill-opacity="0.06"/>
<line x1="62" y1="70.3" x2="1176" y2="70.3" stroke="#d29922" stroke-width="1" stroke-dasharray="4 4"/>
<text x="1172" y="65.3" text-anchor="end" font-size="11" fill="#d29922">guardian 2200</text>
<rect x="62" y="44" width="1114" height="118.5" fill="#58a6ff" fill-opacity="0.06"/>
<line x1="62" y1="162.5" x2="1176" y2="162.5" stroke="#58a6ff" stroke-width="1" stroke-dasharray="4 4"/>
<text x="1172" y="157.5" text-anchor="end" font-size="11" fill="#58a6ff">knight 1850</text>
<line x1="62" y1="360.0" x2="1176" y2="360.0" stroke="#21262d" stroke-width="1"/>
<text x="54" y="364.0" text-anchor="end" font-size="11" fill="#8b949e">1100</text>
<line x1="62" y1="333.7" x2="1176" y2="333.7" stroke="#21262d" stroke-width="1"/>
<text x="54" y="337.7" text-anchor="end" font-size="11" fill="#8b949e">1200</text>
<line x1="62" y1="307.3" x2="1176" y2="307.3" stroke="#21262d" stroke-width="1"/>
<text x="54" y="311.3" text-anchor="end" font-size="11" fill="#8b949e">1300</text>
<line x1="62" y1="281.0" x2="1176" y2="281.0" stroke="#21262d" stroke-width="1"/>
<text x="54" y="285.0" text-anchor="end" font-size="11" fill="#8b949e">1400</text>
<line x1="62" y1="254.7" x2="1176" y2="254.7" stroke="#21262d" stroke-width="1"/>
<text x="54" y="258.7" text-anchor="end" font-size="11" fill="#8b949e">1500</text>
<line x1="62" y1="228.3" x2="1176" y2="228.3" stroke="#21262d" stroke-width="1"/>
<text x="54" y="232.3" text-anchor="end" font-size="11" fill="#8b949e">1600</text>
<line x1="62" y1="202.0" x2="1176" y2="202.0" stroke="#21262d" stroke-width="1"/>
<text x="54" y="206.0" text-anchor="end" font-size="11" fill="#8b949e">1700</text>
<line x1="62" y1="175.7" x2="1176" y2="175.7" stroke="#21262d" stroke-width="1"/>
<text x="54" y="179.7" text-anchor="end" font-size="11" fill="#8b949e">1800</text>
<line x1="62" y1="149.3" x2="1176" y2="149.3" stroke="#21262d" stroke-width="1"/>
<text x="54" y="153.3" text-anchor="end" font-size="11" fill="#8b949e">1900</text>
<line x1="62" y1="123.0" x2="1176" y2="123.0" stroke="#21262d" stroke-width="1"/>
<text x="54" y="127.0" text-anchor="end" font-size="11" fill="#8b949e">2000</text>
<line x1="62" y1="96.7" x2="1176" y2="96.7" stroke="#21262d" stroke-width="1"/>
<text x="54" y="100.7" text-anchor="end" font-size="11" fill="#8b949e">2100</text>
<line x1="62" y1="70.3" x2="1176" y2="70.3" stroke="#21262d" stroke-width="1"/>
<text x="54" y="74.3" text-anchor="end" font-size="11" fill="#8b949e">2200</text>
<line x1="62" y1="44.0" x2="1176" y2="44.0" stroke="#21262d" stroke-width="1"/>
<text x="54" y="48.0" text-anchor="end" font-size="11" fill="#8b949e">2300</text>
<line x1="160.3" y1="44" x2="160.3" y2="360" stroke="#21262d" stroke-width="1"/>
<text x="160.3" y="378" text-anchor="middle" font-size="11" fill="#8b949e">Nov 25</text>
<line x1="258.6" y1="44" x2="258.6" y2="360" stroke="#21262d" stroke-width="1"/>
<text x="258.6" y="378" text-anchor="middle" font-size="11" fill="#8b949e">Dec 25</text>
<line x1="360.2" y1="44" x2="360.2" y2="360" stroke="#21262d" stroke-width="1"/>
<text x="360.2" y="378" text-anchor="middle" font-size="11" fill="#8b949e">Jan 26</text>
<line x1="461.7" y1="44" x2="461.7" y2="360" stroke="#21262d" stroke-width="1"/>
<text x="461.7" y="378" text-anchor="middle" font-size="11" fill="#8b949e">Feb 26</text>
<line x1="553.5" y1="44" x2="553.5" y2="360" stroke="#21262d" stroke-width="1"/>
<text x="553.5" y="378" text-anchor="middle" font-size="11" fill="#8b949e">Mar 26</text>
<line x1="655.0" y1="44" x2="655.0" y2="360" stroke="#21262d" stroke-width="1"/>
<text x="655.0" y="378" text-anchor="middle" font-size="11" fill="#8b949e">Apr 26</text>
<line x1="753.3" y1="44" x2="753.3" y2="360" stroke="#21262d" stroke-width="1"/>
<text x="753.3" y="378" text-anchor="middle" font-size="11" fill="#8b949e">May 26</text>
<line x1="854.9" y1="44" x2="854.9" y2="360" stroke="#21262d" stroke-width="1"/>
<text x="854.9" y="378" text-anchor="middle" font-size="11" fill="#8b949e">Jun 26</text>
<line x1="953.2" y1="44" x2="953.2" y2="360" stroke="#21262d" stroke-width="1"/>
<text x="953.2" y="378" text-anchor="middle" font-size="11" fill="#8b949e">Jul 26</text>
<line x1="1054.8" y1="44" x2="1054.8" y2="360" stroke="#21262d" stroke-width="1"/>
<text x="1054.8" y="378" text-anchor="middle" font-size="11" fill="#8b949e">Aug 26</text>
<line x1="1156.3" y1="44" x2="1156.3" y2="360" stroke="#21262d" stroke-width="1"/>
<text x="1156.3" y="378" text-anchor="middle" font-size="11" fill="#8b949e">Sep 26</text>
<polyline points="62.0,315.6 65.3,314.7 68.6,302.1 71.8,287.1 75.1,263.5 78.4,254.0 81.7,234.6 84.9,224.4 88.2,218.6 91.5,216.5 94.8,242.5 98.0,217.4 101.3,211.3 104.6,220.7 107.9,245.0 111.1,228.2 114.4,227.0 117.7,235.5 121.0,216.9 124.3,210.0 127.5,225.2 130.8,190.1 137.4,188.6 140.6,185.5 143.9,200.4 147.2,206.9 150.5,208.0 153.7,199.7 157.0,196.8 160.3,204.6 163.6,223.7 166.8,228.2 170.1,237.0 173.4,245.0 176.7,223.7 180.0,197.8 183.2,194.3 186.5,200.2 189.8,215.7 193.1,226.1 196.3,212.8 199.6,217.8 206.2,215.1 245.5,213.7 268.4,213.1" fill="none" stroke="#3fb950" stroke-width="2"/>
<polyline points="619.0,209.5 622.3,201.2 625.6,200.6 628.8,214.8 632.1,214.1 700.9,220.8 704.2,224.8 707.5,232.3 720.6,244.4 723.8,251.5" fill="none" stroke="#3fb950" stroke-width="2"/>
<polyline points="963.0,250.0 966.3,254.4" fill="none" stroke="#3fb950" stroke-width="2"/>
<polyline points="1074.4,240.1 1077.7,238.4 1081.0,246.5 1084.3,241.5 1087.5,230.8 1090.8,230.0 1094.1,217.6 1097.4,210.3 1100.6,222.3 1103.9,246.6 1107.2,255.0 1110.5,255.8 1113.7,252.7 1117.0,244.3 1120.3,246.1 1123.6,243.4 1126.9,247.6 1130.1,246.5 1133.4,254.7 1136.7,241.7 1140.0,217.1 1143.2,235.3 1146.5,237.8 1149.8,244.3 1153.1,246.1 1156.3,235.6 1159.6,229.1 1162.9,247.8 1166.2,234.5 1172.7,233.1 1176.0,210.2" fill="none" stroke="#3fb950" stroke-width="2"/>
<circle cx="1176.0" cy="210.2" r="4" fill="#3fb950"/>
<text x="1176.0" y="198.2" text-anchor="end" font-size="12" fill="#3fb950">1669</text>
</svg>
