<svg xmlns="http://www.w3.org/2000/svg" viewBox="0 0 1200 400" font-family="Helvetica,sans-serif">
<rect width="1200" height="400" fill="#0d1117"/>
<text x="600" y="20" text-anchor="middle" font-size="11" fill="#8b949e">259 hours recorded - +11 elo over 241 hours since game 100 (5 per 100 hours; the Carnegie Mellon rate is 25)</text>
<rect x="62" y="60" width="1114" height="25.0" fill="#d29922" fill-opacity="0.06"/>
<line x1="62" y1="85.0" x2="1176" y2="85.0" stroke="#d29922" stroke-width="1" stroke-dasharray="4 4"/>
<text x="1172" y="80.0" text-anchor="end" font-size="11" fill="#d29922">guardian 2200</text>
<rect x="62" y="60" width="1114" height="112.5" fill="#58a6ff" fill-opacity="0.06"/>
<line x1="62" y1="172.5" x2="1176" y2="172.5" stroke="#58a6ff" stroke-width="1" stroke-dasharray="4 4"/>
<text x="1172" y="167.5" text-anchor="end" font-size="11" fill="#58a6ff">knight 1850</text>
<line x1="62" y1="360.0" x2="1176" y2="360.0" stroke="#21262d" stroke-width="1"/>
<text x="54" y="364.0" text-anchor="end" font-size="11" fill="#8b949e">1100</text>
<line x1="62" y1="335.0" x2="1176" y2="335.0" stroke="#21262d" stroke-width="1"/>
<text x="54" y="339.0" text-anchor="end" font-size="11" fill="#8b949e">1200</text>
<line x1="62" y1="310.0" x2="1176" y2="310.0" stroke="#21262d" stroke-width="1"/>
<text x="54" y="314.0" text-anchor="end" font-size="11" fill="#8b949e">1300</text>
<line x1="62" y1="285.0" x2="1176" y2="285.0" stroke="#21262d" stroke-width="1"/>
<text x="54" y="289.0" text-anchor="end" font-size="11" fill="#8b949e">1400</text>
<line x1="62" y1="260.0" x2="1176" y2="260.0" stroke="#21262d" stroke-width="1"/>
<text x="54" y="264.0" text-anchor="end" font-size="11" fill="#8b949e">1500</text>
<line x1="62" y1="235.0" x2="1176" y2="235.0" stroke="#21262d" stroke-width="1"/>
<text x="54" y="239.0" text-anchor="end" font-size="11" fill="#8b949e">1600</text>
<line x1="62" y1="210.0" x2="1176" y2="210.0" stroke="#21262d" stroke-width="1"/>
<text x="54" y="214.0" text-anchor="end" font-size="11" fill="#8b949e">1700</text>
<line x1="62" y1="185.0" x2="1176" y2="185.0" stroke="#21262d" stroke-width="1"/>
<text x="54" y="189.0" text-anchor="end" font-size="11" fill="#8b949e">1800</text>
<line x1="62" y1="160.0" x2="1176" y2="160.0" stroke="#21262d" stroke-width="1"/>
<text x="54" y="164.0" text-anchor="end" font-size="11" fill="#8b949e">1900</text>
<line x1="62" y1="135.0" x2="1176" y2="135.0" stroke="#21262d" stroke-width="1"/>
<text x="54" y="139.0" text-anchor="end" font-size="11" fill="#8b949e">2000</text>
<line x1="62" y1="110.0" x2="1176" y2="110.0" stroke="#21262d" stroke-width="1"/>
<text x="54" y="114.0" text-anchor="end" font-size="11" fill="#8b949e">2100</text>
<line x1="62" y1="85.0" x2="1176" y2="85.0" stroke="#21262d" stroke-width="1"/>
<text x="54" y="89.0" text-anchor="end" font-size="11" fill="#8b949e">2200</text>
<line x1="62" y1="60.0" x2="1176" y2="60.0" stroke="#21262d" stroke-width="1"/>
<text x="54" y="64.0" text-anchor="end" font-size="11" fill="#8b949e">2300</text>
<line x1="62.0" y1="60" x2="62.0" y2="360" stroke="#21262d" stroke-width="1"/>
<text x="62.0" y="378" text-anchor="middle" font-size="11" fill="#8b949e">0h</text>
<line x1="247.7" y1="60" x2="247.7" y2="360" stroke="#21262d" stroke-width="1"/>
<text x="247.7" y="378" text-anchor="middle" font-size="11" fill="#8b949e">50h</text>
<line x1="433.3" y1="60" x2="433.3" y2="360" stroke="#21262d" stroke-width="1"/>
<text x="433.3" y="378" text-anchor="middle" font-size="11" fill="#8b949e">100h</text>
<line x1="619.0" y1="60" x2="619.0" y2="360" stroke="#21262d" stroke-width="1"/>
<text x="619.0" y="378" text-anchor="middle" font-size="11" fill="#8b949e">150h</text>
<line x1="804.7" y1="60" x2="804.7" y2="360" stroke="#21262d" stroke-width="1"/>
<text x="804.7" y="378" text-anchor="middle" font-size="11" fill="#8b949e">200h</text>
<line x1="990.3" y1="60" x2="990.3" y2="360" stroke="#21262d" stroke-width="1"/>
<text x="990.3" y="378" text-anchor="middle" font-size="11" fill="#8b949e">250h</text>
<line x1="1176.0" y1="60" x2="1176.0" y2="360" stroke="#21262d" stroke-width="1"/>
<text x="1176.0" y="378" text-anchor="middle" font-size="11" fill="#8b949e">300h</text>
<line x1="130.2" y1="245.3" x2="1176.0" y2="227.7" stroke="#8b949e" stroke-width="1.5" stroke-dasharray="6 4"/>
<polyline points="75.1,314.1 90.0,307.3 92.5,299.3 96.7,287.4 100.2,266.1 118.8,258.5 130.2,245.3 146.1,225.9 157.0,213.8 164.0,215.9 167.3,241.6 177.2,227.2 186.5,231.3 206.8,244.3 217.7,257.9 222.6,236.8 226.0,242.2 229.1,249.0 231.3,246.0 236.3,245.0 247.7,244.5 254.6,238.8 270.9,236.6 280.9,218.8 290.4,226.2 297.4,240.9 303.0,236.8 313.3,237.4 317.6,244.0 322.3,235.7 329.7,246.4 333.4,246.5 346.7,242.7 353.9,232.2 362.2,210.4 367.7,208.2 369.3,204.7 375.5,210.8 381.6,228.5 384.4,237.7 387.0,233.8 388.8,229.9 389.2,227.1 389.4,225.6 389.6,225.0 392.2,221.0 392.5,220.2 394.6,219.5 396.9,218.9 398.7,215.1 403.6,221.2 404.4,228.5 406.8,227.1 416.5,234.2 461.3,215.1 499.4,223.6 505.1,221.7 511.9,222.0 515.4,214.2 534.2,215.0 537.4,215.3 553.9,208.9 564.7,209.5 579.0,216.2 613.2,211.9 630.4,220.5 662.9,216.2 672.2,227.8 676.2,227.0 692.9,227.1 739.4,217.3 754.1,216.0 798.5,217.5 809.2,219.6 855.2,228.6 897.7,233.4 965.9,229.8 1005.5,231.8 1025.0,242.5" fill="none" stroke="#3fb950" stroke-width="2" stroke-opacity="0.7"/>
<polyline points="100.2,298.1 118.8,270.3 130.2,259.6 146.1,252.0 157.0,244.6 164.0,234.3 167.3,231.3 177.2,227.7 186.5,226.3 206.8,227.5 217.7,233.0 222.6,237.4 226.0,239.4 229.1,240.6 231.3,241.1 236.3,241.3 247.7,243.4 254.6,243.8 270.9,243.9 280.9,243.8 290.4,240.5 297.4,238.0 303.0,237.4 313.3,236.5 317.6,235.9 322.3,235.3 329.7,235.4 333.4,238.0 346.7,240.3 353.9,242.6 362.2,239.2 367.7,235.5 369.3,231.7 375.5,230.0 381.6,225.4 384.4,224.0 387.0,223.6 388.8,223.4 389.2,223.2 389.4,222.9 389.6,222.6 392.2,222.1 392.5,221.7 394.6,221.3 396.9,220.8 398.7,220.3 403.6,218.9 404.4,218.8 406.8,218.7 416.5,218.9 461.3,218.6 499.4,218.9 505.1,219.1 511.9,219.3 515.4,219.4 534.2,219.6 537.4,219.7 553.9,219.8 564.7,220.1 579.0,220.5 613.2,220.8 630.4,221.1 662.9,221.2 672.2,220.8 676.2,220.7 692.9,220.6 739.4,220.0 754.1,219.0 798.5,218.5 809.2,218.4 855.2,218.5 897.7,219.1 965.9,219.3 1005.5,219.9 1025.0,220.3" fill="none" stroke="#e3b341" stroke-width="2"/>
<line x1="62" y1="42" x2="78" y2="42" stroke="#3fb950" stroke-width="2"/>
<text x="84" y="46" font-size="11" fill="#8b949e">elo</text>
<line x1="114.6" y1="42" x2="130.6" y2="42" stroke="#e3b341" stroke-width="2"/>
<text x="136.6" y="46" font-size="11" fill="#8b949e">60 game moving average</text>
<line x1="285.0" y1="42" x2="301.0" y2="42" stroke="#8b949e" stroke-width="2" stroke-dasharray="6 4"/>
<text x="307.0" y="46" font-size="11" fill="#8b949e">200 elo per 800 hours (Carnegie Mellon, Codeforces users)</text>
</svg>
