<svg xmlns="http://www.w3.org/2000/svg" viewBox="0 0 1200 400" font-family="Helvetica,sans-serif">
<rect width="1200" height="400" fill="#0d1117"/>
<text x="600" y="20" text-anchor="middle" font-size="11" fill="#8b949e">417 first-sight games - last 30: actual minus model -0.16 (-1.8 standard errors, inside noise)</text>
<rect x="62.0" y="38" width="16" height="8" fill="#58a6ff" fill-opacity="1"/>
<text x="84.0" y="46" font-size="11" fill="#8b949e">mean residual of the last 30 first sights</text>
<rect x="350.20000000000005" y="38" width="16" height="8" fill="#58a6ff" fill-opacity="1"/>
<text x="372.20000000000005" y="46" font-size="11" fill="#8b949e">±2 standard errors under the model</text>
<line x1="62" y1="360.0" x2="1176" y2="360.0" stroke="#21262d" stroke-width="1"/>
<text x="54" y="364.0" text-anchor="end" font-size="11" fill="#8b949e">-0.40</text>
<line x1="62" y1="322.5" x2="1176" y2="322.5" stroke="#21262d" stroke-width="1"/>
<text x="54" y="326.5" text-anchor="end" font-size="11" fill="#8b949e">-0.30</text>
<line x1="62" y1="285.0" x2="1176" y2="285.0" stroke="#21262d" stroke-width="1"/>
<text x="54" y="289.0" text-anchor="end" font-size="11" fill="#8b949e">-0.20</text>
<line x1="62" y1="247.5" x2="1176" y2="247.5" stroke="#21262d" stroke-width="1"/>
<text x="54" y="251.5" text-anchor="end" font-size="11" fill="#8b949e">-0.10</text>
<line x1="62" y1="210.0" x2="1176" y2="210.0" stroke="#21262d" stroke-width="1"/>
<text x="54" y="214.0" text-anchor="end" font-size="11" fill="#8b949e">+0.00</text>
<line x1="62" y1="172.5" x2="1176" y2="172.5" stroke="#21262d" stroke-width="1"/>
<text x="54" y="176.5" text-anchor="end" font-size="11" fill="#8b949e">+0.10</text>
<line x1="62" y1="135.0" x2="1176" y2="135.0" stroke="#21262d" stroke-width="1"/>
<text x="54" y="139.0" text-anchor="end" font-size="11" fill="#8b949e">+0.20</text>
<line x1="62" y1="97.5" x2="1176" y2="97.5" stroke="#21262d" stroke-width="1"/>
<text x="54" y="101.5" text-anchor="end" font-size="11" fill="#8b949e">+0.30</text>
<line x1="62" y1="60.0" x2="1176" y2="60.0" stroke="#21262d" stroke-width="1"/>
<text x="54" y="64.0" text-anchor="end" font-size="11" fill="#8b949e">+0.40</text>
<line x1="153.5" y1="60" x2="153.5" y2="360" stroke="#21262d" stroke-width="1"/>
<text x="153.5" y="378" text-anchor="middle" font-size="11" fill="#8b949e">Nov 25</text>
<line x1="251.5" y1="60" x2="251.5" y2="360" stroke="#21262d" stroke-width="1"/>
<text x="251.5" y="378" text-anchor="middle" font-size="11" fill="#8b949e">Dec 25</text>
<line x1="352.8" y1="60" x2="352.8" y2="360" stroke="#21262d" stroke-width="1"/>
<text x="352.8" y="378" text-anchor="middle" font-size="11" fill="#8b949e">Jan 26</text>
<line x1="454.0" y1="60" x2="454.0" y2="360" stroke="#21262d" stroke-width="1"/>
<text x="454.0" y="378" text-anchor="middle" font-size="11" fill="#8b949e">Feb 26</text>
<line x1="545.5" y1="60" x2="545.5" y2="360" stroke="#21262d" stroke-width="1"/>
<text x="545.5" y="378" text-anchor="middle" font-size="11" fill="#8b949e">Mar 26</text>
<line x1="646.8" y1="60" x2="646.8" y2="360" stroke="#21262d" stroke-width="1"/>
<text x="646.8" y="378" text-anchor="middle" font-size="11" fill="#8b949e">Apr 26</text>
<line x1="744.8" y1="60" x2="744.8" y2="360" stroke="#21262d" stroke-width="1"/>
<text x="744.8" y="378" text-anchor="middle" font-size="11" fill="#8b949e">May 26</text>
<line x1="846.0" y1="60" x2="846.0" y2="360" stroke="#21262d" stroke-width="1"/>
<text x="846.0" y="378" text-anchor="middle" font-size="11" fill="#8b949e">Jun 26</text>
<line x1="944.1" y1="60" x2="944.1" y2="360" stroke="#21262d" stroke-width="1"/>
<text x="944.1" y="378" text-anchor="middle" font-size="11" fill="#8b949e">Jul 26</text>
<line x1="1045.3" y1="60" x2="1045.3" y2="360" stroke="#21262d" stroke-width="1"/>
<text x="1045.3" y="378" text-anchor="middle" font-size="11" fill="#8b949e">Aug 26</text>
<line x1="1146.6" y1="60" x2="1146.6" y2="360" stroke="#21262d" stroke-width="1"/>
<text x="1146.6" y="378" text-anchor="middle" font-size="11" fill="#8b949e">Sep 26</text>
<polygon points="62.0,201.6 62.0,201.7 62.0,194.1 65.3,197.1 65.3,186.8 65.3,188.4 65.3,186.9 65.3,174.0 65.3,176.7 65.3,176.2 65.3,187.4 65.3,191.9 65.3,180.0 65.3,168.2 65.3,159.7 65.3,162.5 65.3,172.9 68.5,163.9 68.5,167.4 68.5,153.9 68.5,153.8 68.5,153.9 68.5,154.2 68.5,154.0 68.5,153.5 68.5,155.0 68.5,155.0 68.5,142.7 71.8,142.7 71.8,129.7 71.8,117.6 71.8,117.5 71.8,129.1 71.8,128.2 71.8,128.1 71.8,128.9 71.8,130.8 71.8,131.2 71.8,132.0 71.8,145.0 71.8,133.3 71.8,134.1 71.8,133.8 71.8,133.4 71.8,133.0 71.8,132.7 71.8,122.6 71.8,132.7 71.8,132.3 71.8,132.5 71.8,132.4 71.8,132.5 71.8,132.9 71.8,132.8 71.8,145.4 71.8,146.0 71.8,145.8 71.8,158.6 71.8,158.6 71.8,158.9 71.8,158.6 71.8,158.7 71.8,147.5 71.8,147.5 75.1,142.6 75.1,141.9 75.1,142.0 75.1,142.0 75.1,129.1 75.1,111.0 75.1,110.2 75.1,116.9 75.1,116.6 75.1,114.0 75.1,114.4 75.1,114.2 75.1,114.3 75.1,103.5 75.1,115.3 78.3,112.8 78.3,122.4 78.3,120.8 78.3,129.7 78.3,126.5 78.3,111.3 78.3,110.2 78.3,106.6 78.3,90.7 78.3,89.9 78.3,99.2 81.6,95.7 81.6,94.9 81.6,90.1 81.6,102.6 81.6,108.0 81.6,105.8 81.6,103.6 81.6,113.7 81.6,126.4 84.9,128.6 84.9,126.4 84.9,130.4 84.9,131.0 84.9,142.7 84.9,139.6 84.9,138.9 84.9,148.0 84.9,161.8 84.9,149.7 84.9,153.0 84.9,140.4 84.9,138.2 88.1,140.9 88.1,156.2 88.1,171.8 88.1,184.9 88.1,187.8 88.1,190.6 88.1,191.3 91.4,179.7 91.4,183.0 91.4,182.1 91.4,192.5 91.4,180.4 91.4,176.6 91.4,179.5 91.4,178.9 91.4,163.7 91.4,149.2 91.4,151.8 91.4,155.2 94.7,144.0 94.7,144.1 94.7,134.7 94.7,149.0 94.7,160.3 94.7,151.0 94.7,138.6 94.7,137.8 94.7,144.8 94.7,144.7 94.7,145.5 94.7,131.2 97.9,117.5 97.9,104.6 97.9,90.4 97.9,101.0 97.9,112.7 97.9,109.8 97.9,124.7 97.9,134.3 97.9,136.0 101.2,138.0 101.2,150.2 101.2,153.7 101.2,153.5 101.2,155.9 101.2,172.9 101.2,174.9 101.2,186.4 104.5,185.9 104.5,186.2 104.5,185.0 104.5,185.6 104.5,171.9 104.5,159.5 104.5,166.2 107.7,165.7 107.7,165.4 107.7,157.6 107.7,160.9 107.7,163.9 107.7,163.6 107.7,165.2 107.7,176.6 111.0,191.2 111.0,192.4 111.0,180.7 111.0,183.3 111.0,170.8 111.0,161.3 111.0,161.6 114.3,154.0 114.3,142.1 114.3,141.7 117.5,141.6 120.8,138.6 120.8,127.3 120.8,127.5 120.8,126.5 120.8,136.4 120.8,144.1 120.8,155.1 120.8,152.1 120.8,166.3 120.8,168.5 124.1,161.6 124.1,161.8 124.1,163.3 124.1,162.4 130.6,161.8 130.6,161.4 133.9,162.0 133.9,169.5 133.9,153.8 133.9,136.4 133.9,124.9 137.1,136.2 137.1,148.5 137.1,147.4 137.1,144.8 137.1,144.5 137.1,151.4 137.1,145.5 137.1,145.7 137.1,157.9 137.1,159.5 140.4,159.6 140.4,167.2 140.4,169.2 140.4,156.4 140.4,147.9 140.4,150.6 140.4,153.3 140.4,141.5 143.7,136.9 143.7,137.4 143.7,134.7 143.7,146.0 143.7,147.6 143.7,159.5 143.7,160.1 143.7,162.1 143.7,153.3 146.9,168.0 146.9,172.6 146.9,173.0 146.9,161.9 146.9,149.9 150.2,151.1 150.2,154.0 150.2,153.4 150.2,158.2 150.2,175.9 150.2,173.3 150.2,161.2 150.2,162.3 150.2,162.3 153.5,151.9 153.5,139.7 153.5,142.9 153.5,151.1 153.5,138.7 153.5,144.0 156.7,153.8 156.7,170.3 156.7,169.9 156.7,181.9 156.7,170.7 160.0,183.1 160.0,172.1 160.0,171.8 160.0,171.7 160.0,172.6 160.0,162.2 160.0,162.7 160.0,163.1 163.3,163.1 163.3,175.2 163.3,183.6 163.3,182.9 163.3,183.1 163.3,171.3 163.3,159.4 166.5,161.3 166.5,160.8 166.5,161.4 166.5,172.8 166.5,182.0 166.5,181.8 166.5,180.8 166.5,173.6 166.5,184.0 166.5,178.6 166.5,169.6 166.5,164.8 166.5,172.2 169.8,161.7 169.8,161.0 169.8,156.7 169.8,155.4 169.8,155.7 169.8,156.1 169.8,155.9 169.8,156.3 169.8,156.2 169.8,152.6 169.8,152.6 169.8,136.3 173.1,127.0 173.1,127.2 173.1,126.9 173.1,127.1 173.1,139.3 173.1,137.0 173.1,134.3 176.3,133.7 176.3,121.8 176.3,115.4 176.3,116.2 176.3,116.7 176.3,116.3 176.3,105.5 179.6,105.5 179.6,104.5 179.6,108.7 182.9,101.6 182.9,103.0 182.9,103.3 182.9,94.4 182.9,107.4 182.9,105.5 182.9,115.8 182.9,128.9 186.1,138.7 186.1,138.5 186.1,141.2 186.1,141.2 186.1,145.2 186.1,157.3 186.1,157.5 189.4,157.1 189.4,156.5 189.4,143.7 192.7,156.9 199.2,158.2 238.4,157.7 261.3,157.9 261.3,270.8 238.4,270.7 199.2,271.0 192.7,270.0 189.4,256.9 189.4,269.6 189.4,270.0 186.1,270.2 186.1,270.1 186.1,257.9 186.1,254.9 186.1,255.0 186.1,253.0 186.1,253.2 182.9,242.4 182.9,229.5 182.9,218.4 182.9,219.6 182.9,206.8 182.9,216.6 182.9,216.4 182.9,215.5 179.6,223.7 179.6,220.1 179.6,220.6 176.3,220.6 176.3,232.0 176.3,232.2 176.3,231.9 176.3,231.5 176.3,238.8 176.3,251.0 173.1,251.4 173.1,253.2 173.1,254.9 173.1,242.6 173.1,242.5 173.1,242.7 173.1,242.6 169.8,252.7 169.8,268.0 169.8,268.0 169.8,270.4 169.8,270.5 169.8,270.2 169.8,270.3 169.8,270.1 169.8,270.0 169.8,270.7 169.8,273.9 169.8,274.3 166.5,285.3 166.5,277.0 166.5,281.0 166.5,291.2 166.5,297.2 166.5,286.0 166.5,294.4 166.5,295.0 166.5,295.1 166.5,285.9 166.5,274.0 166.5,273.7 166.5,273.9 163.3,272.6 163.3,284.8 163.3,296.8 163.3,296.7 163.3,297.1 163.3,287.5 163.3,275.2 160.0,275.2 160.0,275.0 160.0,274.7 160.0,285.9 160.0,285.3 160.0,285.3 160.0,285.5 160.0,297.1 156.7,284.7 156.7,296.4 156.7,284.3 156.7,284.5 156.7,269.0 153.5,258.3 153.5,252.4 153.5,264.8 153.5,255.9 153.5,253.7 153.5,266.1 150.2,276.6 150.2,276.6 150.2,275.9 150.2,288.2 150.2,289.9 150.2,273.0 150.2,268.9 150.2,269.3 150.2,267.3 146.9,266.6 146.9,278.8 146.9,290.5 146.9,290.2 146.9,286.5 143.7,272.0 143.7,281.4 143.7,280.1 143.7,279.7 143.7,267.7 143.7,266.6 143.7,254.9 143.7,256.7 143.7,256.4 140.4,259.9 140.4,272.0 140.4,270.1 140.4,268.3 140.4,277.5 140.4,290.3 140.4,288.8 140.4,280.1 137.1,280.1 137.1,278.9 137.1,266.5 137.1,266.4 137.1,271.3 137.1,263.5 137.1,263.6 137.1,265.4 137.1,266.0 137.1,253.7 133.9,241.9 133.9,253.8 133.9,270.1 133.9,285.3 133.9,276.7 130.6,276.3 130.6,276.5 124.1,276.8 124.1,277.4 124.1,276.5 124.1,276.4 120.8,284.0 120.8,282.6 120.8,269.0 120.8,270.9 120.8,259.5 120.8,250.8 120.8,240.0 120.8,240.7 120.8,240.6 120.8,252.4 117.5,254.5 114.3,254.5 114.3,254.8 114.3,266.9 111.0,275.6 111.0,275.5 111.0,285.9 111.0,298.4 111.0,296.6 111.0,308.6 111.0,307.8 107.7,293.9 107.7,282.1 107.7,281.1 107.7,281.3 107.7,279.3 107.7,277.0 107.7,285.6 107.7,285.8 104.5,286.1 104.5,278.6 104.5,291.0 104.5,304.3 104.5,304.0 104.5,304.7 104.5,304.6 101.2,304.9 101.2,293.0 101.2,291.7 101.2,275.3 101.2,273.7 101.2,273.7 101.2,271.3 101.2,259.0 97.9,256.5 97.9,255.4 97.9,245.0 97.9,230.9 97.9,232.9 97.9,220.8 97.9,209.7 97.9,223.3 97.9,236.1 94.7,249.3 94.7,263.0 94.7,262.4 94.7,262.5 94.7,254.3 94.7,254.8 94.7,267.2 94.7,277.5 94.7,265.8 94.7,252.0 94.7,262.2 94.7,262.2 91.4,273.9 91.4,271.5 91.4,269.6 91.4,283.4 91.4,298.5 91.4,299.0 91.4,297.0 91.4,299.6 91.4,311.9 91.4,301.9 91.4,302.5 91.4,300.2 88.1,311.9 88.1,311.5 88.1,309.6 88.1,307.4 88.1,294.5 88.1,279.9 88.1,265.3 84.9,263.3 84.9,265.1 84.9,277.7 84.9,275.4 84.9,287.6 84.9,274.3 84.9,264.2 84.9,264.7 84.9,266.8 84.9,255.0 84.9,254.6 84.9,251.0 84.9,252.6 81.6,250.3 81.6,237.8 81.6,227.0 81.6,228.4 81.6,230.0 81.6,225.8 81.6,213.3 81.6,217.1 81.6,217.5 78.3,220.0 78.3,209.8 78.3,210.3 78.3,225.0 78.3,227.6 78.3,228.3 78.3,242.7 78.3,244.9 78.3,234.8 78.3,235.8 78.3,225.3 75.1,227.1 75.1,215.0 75.1,226.2 75.1,226.2 75.1,226.3 75.1,226.0 75.1,227.8 75.1,227.9 75.1,220.2 75.1,220.6 75.1,237.7 75.1,250.4 75.1,250.5 75.1,250.4 75.1,250.8 71.8,254.6 71.8,254.5 71.8,266.3 71.8,266.2 71.8,266.4 71.8,266.2 71.8,266.2 71.8,253.5 71.8,253.6 71.8,253.3 71.8,240.8 71.8,240.8 71.8,240.6 71.8,240.5 71.8,240.6 71.8,240.5 71.8,240.7 71.8,229.9 71.8,240.8 71.8,241.0 71.8,241.2 71.8,241.5 71.8,241.6 71.8,241.2 71.8,253.2 71.8,240.4 71.8,239.9 71.8,239.7 71.8,238.6 71.8,238.1 71.8,238.2 71.8,238.7 71.8,226.7 71.8,226.8 71.8,239.1 71.8,251.9 68.5,251.9 68.5,264.2 68.5,264.2 68.5,263.2 68.5,263.6 68.5,263.6 68.5,263.5 68.5,263.4 68.5,263.5 68.5,276.5 68.5,274.2 65.3,284.1 65.3,273.0 65.3,271.1 65.3,280.8 65.3,292.9 65.3,305.1 65.3,301.4 65.3,289.7 65.3,290.0 65.3,288.0 65.3,300.8 65.3,301.7 65.3,300.6 65.3,311.7 62.0,309.7 62.0,318.3 62.0,318.2" fill="#58a6ff" fill-opacity="0.15"/>
<polygon points="614.1,155.9 617.4,154.6 620.6,154.1 692.5,153.7 695.8,161.7 712.1,160.7 712.1,160.8 712.1,161.5 715.4,171.6 715.4,288.0 712.1,277.1 712.1,276.7 712.1,276.6 695.8,277.3 692.5,268.3 620.6,268.5 617.4,268.8 614.1,269.5" fill="#58a6ff" fill-opacity="0.15"/>
<polygon points="953.9,169.6 953.9,169.5 957.1,182.0 957.1,299.2 953.9,286.7 953.9,286.8" fill="#58a6ff" fill-opacity="0.15"/>
<polygon points="1084.5,163.8 1084.5,170.6 1084.5,166.9 1084.5,152.4 1084.5,135.7 1084.5,128.9 1084.5,138.1 1100.9,147.7 1100.9,156.4 1104.1,140.7 1107.4,147.9 1110.7,150.6 1117.2,158.7 1117.2,167.4 1117.2,165.0 1120.5,173.0 1130.3,168.7 1130.3,175.2 1133.5,188.6 1133.5,188.9 1133.5,185.6 1136.8,198.0 1136.8,190.1 1146.6,190.9 1146.6,188.2 1153.1,185.9 1153.1,184.4 1166.2,194.7 1166.2,192.1 1166.2,182.4 1166.2,186.3 1166.2,177.4 1166.2,173.0 1166.2,183.0 1169.5,199.6 1169.5,218.6 1172.7,208.7 1176.0,204.5 1176.0,334.3 1172.7,338.9 1169.5,349.4 1169.5,330.7 1166.2,313.9 1166.2,302.8 1166.2,307.2 1166.2,315.4 1166.2,311.6 1166.2,320.6 1166.2,322.5 1153.1,311.8 1153.1,313.1 1146.6,314.8 1146.6,316.6 1136.8,316.1 1136.8,325.0 1133.5,312.6 1133.5,315.0 1133.5,314.9 1130.3,301.8 1130.3,294.4 1120.5,298.2 1117.2,290.1 1117.2,292.2 1117.2,282.6 1110.7,273.8 1107.4,270.4 1104.1,262.4 1100.9,277.4 1100.9,267.7 1084.5,257.2 1084.5,247.1 1084.5,253.5 1084.5,270.4 1084.5,284.9 1084.5,288.4 1084.5,281.8" fill="#58a6ff" fill-opacity="0.15"/>
<line x1="62" y1="210.0" x2="1176" y2="210.0" stroke="#c9d1d9" stroke-width="1" stroke-dasharray="4 4"/>
<text x="1172" y="205.0" text-anchor="end" font-size="11" fill="#c9d1d9">the model</text>
<polyline points="62.0,259.9 62.0,260.0 62.0,251.9 65.3,254.4 65.3,243.7 65.3,245.1 65.3,243.8 65.3,231.0 65.3,233.4 65.3,232.9 65.3,244.4 65.3,248.5 65.3,236.4 65.3,224.5 65.3,215.4 65.3,217.8 65.3,228.5 68.5,219.0 68.5,221.9 68.5,208.7 68.5,208.6 68.5,208.7 68.5,208.9 68.5,208.8 68.5,208.3 68.5,209.6 68.5,209.6 68.5,197.3 71.8,197.3 71.8,184.4 71.8,172.2 71.8,172.1 71.8,183.9 71.8,183.2 71.8,183.1 71.8,183.8 71.8,185.3 71.8,185.6 71.8,186.2 71.8,199.1 71.8,187.2 71.8,187.8 71.8,187.6 71.8,187.3 71.8,187.0 71.8,186.8 71.8,176.2 71.8,186.7 71.8,186.4 71.8,186.5 71.8,186.5 71.8,186.5 71.8,186.9 71.8,186.8 71.8,199.4 71.8,199.8 71.8,199.7 71.8,212.4 71.8,212.4 71.8,212.6 71.8,212.4 71.8,212.5 71.8,201.0 71.8,201.0 75.1,196.7 75.1,196.2 75.1,196.2 75.1,196.2 75.1,183.4 75.1,165.8 75.1,165.2 75.1,172.4 75.1,172.2 75.1,170.0 75.1,170.4 75.1,170.2 75.1,170.2 75.1,159.2 75.1,171.2 78.3,169.0 78.3,179.1 78.3,177.8 78.3,187.3 78.3,184.6 78.3,169.8 78.3,168.9 78.3,165.8 78.3,150.5 78.3,149.9 78.3,159.6 81.6,156.6 81.6,156.0 81.6,151.7 81.6,164.2 81.6,169.0 81.6,167.1 81.6,165.3 81.6,175.7 81.6,188.3 84.9,190.6 84.9,188.7 84.9,192.5 84.9,193.0 84.9,204.8 84.9,202.2 84.9,201.5 84.9,211.2 84.9,224.7 84.9,212.6 84.9,215.3 84.9,202.8 84.9,200.8 88.1,203.1 88.1,218.1 88.1,233.2 88.1,246.1 88.1,248.7 88.1,251.1 88.1,251.6 91.4,239.9 91.4,242.7 91.4,242.0 91.4,252.2 91.4,240.0 91.4,236.8 91.4,239.3 91.4,238.7 91.4,223.5 91.4,209.4 91.4,211.7 91.4,214.6 94.7,203.1 94.7,203.1 94.7,193.3 94.7,207.4 94.7,218.9 94.7,209.1 94.7,196.7 94.7,196.1 94.7,203.7 94.7,203.6 94.7,204.3 94.7,190.2 97.9,176.8 97.9,163.9 97.9,150.0 97.9,160.9 97.9,172.8 97.9,170.3 97.9,184.8 97.9,194.9 97.9,196.2 101.2,198.5 101.2,210.7 101.2,213.7 101.2,213.6 101.2,215.6 101.2,232.3 101.2,233.9 101.2,245.7 104.5,245.2 104.5,245.5 104.5,244.5 104.5,245.0 104.5,231.5 104.5,219.0 104.5,226.1 107.7,225.8 107.7,225.5 107.7,217.3 107.7,220.1 107.7,222.6 107.7,222.3 107.7,223.6 107.7,235.2 111.0,249.5 111.0,250.5 111.0,238.6 111.0,240.8 111.0,228.4 111.0,218.4 111.0,218.6 114.3,210.5 114.3,198.4 114.3,198.1 117.5,198.0 120.8,195.5 120.8,184.0 120.8,184.1 120.8,183.3 120.8,193.6 120.8,201.8 120.8,213.0 120.8,210.6 120.8,224.4 120.8,226.3 124.1,219.0 124.1,219.2 124.1,220.3 124.1,219.6 130.6,219.1 130.6,218.8 133.9,219.3 133.9,227.4 133.9,212.0 133.9,195.1 133.9,183.4 137.1,194.9 137.1,207.3 137.1,206.4 137.1,204.2 137.1,204.0 137.1,211.3 137.1,206.0 137.1,206.1 137.1,218.4 137.1,219.8 140.4,219.9 140.4,228.0 140.4,229.8 140.4,217.0 140.4,208.1 140.4,210.4 140.4,212.6 140.4,200.7 143.7,196.7 143.7,197.0 143.7,194.8 143.7,206.3 143.7,207.7 143.7,219.6 143.7,220.1 143.7,221.8 143.7,212.6 146.9,227.3 146.9,231.4 146.9,231.8 146.9,220.3 146.9,208.3 150.2,209.2 150.2,211.7 150.2,211.2 150.2,215.6 150.2,232.9 150.2,230.8 150.2,218.5 150.2,219.4 150.2,219.5 153.5,209.0 153.5,196.7 153.5,199.4 153.5,207.9 153.5,195.5 153.5,201.1 156.7,211.4 156.7,227.4 156.7,227.1 156.7,239.2 156.7,227.7 160.0,240.1 160.0,228.8 160.0,228.6 160.0,228.5 160.0,229.3 160.0,218.5 160.0,218.9 160.0,219.1 163.3,219.2 163.3,231.3 163.3,240.4 163.3,239.8 163.3,240.0 163.3,228.0 163.3,216.0 166.5,217.6 166.5,217.2 166.5,217.7 166.5,229.4 166.5,238.6 166.5,238.4 166.5,237.6 166.5,229.8 166.5,240.6 166.5,234.9 166.5,225.3 166.5,220.9 166.5,228.8 169.8,218.0 169.8,217.5 169.8,213.7 169.8,212.7 169.8,212.9 169.8,213.2 169.8,213.1 169.8,213.4 169.8,213.3 169.8,210.3 169.8,210.3 169.8,194.5 173.1,184.8 173.1,184.9 173.1,184.7 173.1,184.8 173.1,197.1 173.1,195.1 173.1,192.8 176.3,192.3 176.3,180.3 176.3,173.4 176.3,174.0 176.3,174.4 176.3,174.1 176.3,163.1 179.6,163.1 179.6,162.3 179.6,166.2 182.9,158.6 182.9,159.7 182.9,160.0 182.9,150.6 182.9,163.5 182.9,162.0 182.9,172.7 182.9,185.7 186.1,196.0 186.1,195.7 186.1,198.1 186.1,198.0 186.1,201.6 186.1,213.7 186.1,213.8 189.4,213.5 189.4,213.1 189.4,200.3 192.7,213.4 199.2,214.6 238.4,214.2 261.3,214.4" fill="none" stroke="#58a6ff" stroke-width="2"/>
<polyline points="614.1,212.7 617.4,211.7 620.6,211.3 692.5,211.0 695.8,219.5 712.1,218.7 712.1,218.8 712.1,219.3 715.4,229.8" fill="none" stroke="#58a6ff" stroke-width="2"/>
<polyline points="953.9,228.2 953.9,228.1 957.1,240.6" fill="none" stroke="#58a6ff" stroke-width="2"/>
<polyline points="1084.5,222.8 1084.5,229.5 1084.5,225.9 1084.5,211.4 1084.5,194.6 1084.5,188.0 1084.5,197.6 1100.9,207.7 1100.9,216.9 1104.1,201.5 1107.4,209.1 1110.7,212.2 1117.2,220.6 1117.2,229.8 1117.2,227.6 1120.5,235.6 1130.3,231.6 1130.3,238.5 1133.5,251.8 1133.5,251.9 1133.5,249.1 1136.8,261.5 1136.8,253.1 1146.6,253.7 1146.6,251.5 1153.1,249.5 1153.1,248.1 1166.2,258.6 1166.2,256.3 1166.2,247.0 1166.2,250.9 1166.2,242.3 1166.2,237.9 1166.2,248.5 1169.5,265.1 1169.5,284.0 1172.7,273.8 1176.0,269.4" fill="none" stroke="#58a6ff" stroke-width="2"/>
<circle cx="1176.0" cy="269.4" r="4" fill="#58a6ff"/>
</svg>
