<svg xmlns="http://www.w3.org/2000/svg" viewBox="0 0 420 200" width="420" height="200" font-family="Helvetica,sans-serif">
<rect width="420" height="200" fill="#0d1117"/>
<path d="M90.0,160.0 A120,120 0 0 1 210.0,40.0" fill="none" stroke="#f85149" stroke-width="14" stroke-opacity="0.35"/>
<path d="M210.0,40.0 A120,120 0 0 1 330.0,160.0" fill="none" stroke="#3fb950" stroke-width="14" stroke-opacity="0.35"/>
<path d="M210.0,40.0 A120,120 0 0 1 288.4,69.1" fill="none" stroke="#3fb950" stroke-width="14" stroke-opacity="1.0"/>
<line x1="102.0" y1="160.0" x2="78.0" y2="160.0" stroke="#30363d" stroke-width="1"/>
<text x="66.0" y="164.0" text-anchor="middle" font-size="10" fill="#8b949e">-150</text>
<line x1="116.5" y1="106.0" x2="95.7" y2="94.0" stroke="#30363d" stroke-width="1"/>
<text x="85.3" y="92.0" text-anchor="middle" font-size="10" fill="#8b949e">-100</text>
<line x1="156.0" y1="66.5" x2="144.0" y2="45.7" stroke="#30363d" stroke-width="1"/>
<text x="138.0" y="39.3" text-anchor="middle" font-size="10" fill="#8b949e">-50</text>
<line x1="210.0" y1="52.0" x2="210.0" y2="28.0" stroke="#30363d" stroke-width="1"/>
<text x="210.0" y="20.0" text-anchor="middle" font-size="10" fill="#8b949e">+0</text>
<line x1="264.0" y1="66.5" x2="276.0" y2="45.7" stroke="#30363d" stroke-width="1"/>
<text x="282.0" y="39.3" text-anchor="middle" font-size="10" fill="#8b949e">+50</text>
<line x1="303.5" y1="106.0" x2="324.3" y2="94.0" stroke="#30363d" stroke-width="1"/>
<text x="334.7" y="92.0" text-anchor="middle" font-size="10" fill="#8b949e">+100</text>
<line x1="318.0" y1="160.0" x2="342.0" y2="160.0" stroke="#30363d" stroke-width="1"/>
<text x="354.0" y="164.0" text-anchor="middle" font-size="10" fill="#8b949e">+150</text>
<line x1="238.5" y1="53.7" x2="243.6" y2="34.4" stroke="#58a6ff" stroke-width="2"/>
<text x="233.3" y="77.1" text-anchor="middle" font-size="10" fill="#58a6ff">CMU 25</text>
<line x1="210.0" y1="160" x2="275.3" y2="84.3" stroke="#c9d1d9" stroke-width="2.5" stroke-linecap="round"/>
<circle cx="210.0" cy="160" r="5" fill="#c9d1d9"/>
<text x="210.0" y="120" text-anchor="middle" font-size="26" font-weight="bold" fill="#3fb950">+68</text>
<text x="210.0" y="188" text-anchor="middle" font-size="11" fill="#8b949e">elo per 100h on new problems, 1572 to 1688, first vs last 60 days</text>
</svg>
