<svg xmlns="http://www.w3.org/2000/svg" viewBox="0 0 1200 560" font-family="Helvetica,sans-serif">
<rect width="1200" height="560" fill="#0d1117"/>
<text x="600" y="24" text-anchor="middle" font-size="13" fill="#c9d1d9">Solves and drills per day, full repo history</text>
<text x="62" y="52" font-size="12" fill="#c9d1d9">per day: solves (blue) + drills (green), stacked; dashed = 7-day average of the total</text>
<line x1="62" y1="270.0" x2="1176" y2="270.0" stroke="#21262d" stroke-width="1"/>
<text x="54" y="274.0" text-anchor="end" font-size="11" fill="#8b949e">0</text>
<line x1="62" y1="245.9" x2="1176" y2="245.9" stroke="#21262d" stroke-width="1"/>
<text x="54" y="249.9" text-anchor="end" font-size="11" fill="#8b949e">5</text>
<line x1="62" y1="221.9" x2="1176" y2="221.9" stroke="#21262d" stroke-width="1"/>
<text x="54" y="225.9" text-anchor="end" font-size="11" fill="#8b949e">10</text>
<line x1="62" y1="197.8" x2="1176" y2="197.8" stroke="#21262d" stroke-width="1"/>
<text x="54" y="201.8" text-anchor="end" font-size="11" fill="#8b949e">15</text>
<line x1="62" y1="173.7" x2="1176" y2="173.7" stroke="#21262d" stroke-width="1"/>
<text x="54" y="177.7" text-anchor="end" font-size="11" fill="#8b949e">20</text>
<line x1="62" y1="149.6" x2="1176" y2="149.6" stroke="#21262d" stroke-width="1"/>
<text x="54" y="153.6" text-anchor="end" font-size="11" fill="#8b949e">25</text>
<line x1="62" y1="125.6" x2="1176" y2="125.6" stroke="#21262d" stroke-width="1"/>
<text x="54" y="129.6" text-anchor="end" font-size="11" fill="#8b949e">30</text>
<line x1="62" y1="101.5" x2="1176" y2="101.5" stroke="#21262d" stroke-width="1"/>
<text x="54" y="105.5" text-anchor="end" font-size="11" fill="#8b949e">35</text>
<line x1="62" y1="77.4" x2="1176" y2="77.4" stroke="#21262d" stroke-width="1"/>
<text x="54" y="81.4" text-anchor="end" font-size="11" fill="#8b949e">40</text>
<polygon points="62.0,255.6 65.3,193.0 68.6,178.5 71.9,236.3 75.2,221.9 78.5,202.6 81.8,77.4 85.1,217.0 88.4,207.4 91.8,212.2 95.1,231.5 98.4,250.7 101.7,197.8 105.0,207.4 108.3,207.4 111.6,241.1 114.9,231.5 118.2,231.5 121.5,231.5 124.8,231.5 128.1,236.3 131.4,221.9 134.7,212.2 138.0,270.0 141.3,202.6 144.6,212.2 147.9,236.3 151.3,226.7 154.6,226.7 157.9,221.9 161.2,207.4 164.5,245.9 167.8,231.5 171.1,217.0 174.4,193.0 177.7,245.9 181.0,207.4 184.3,226.7 187.6,236.3 190.9,245.9 194.2,221.9 197.5,241.1 200.8,245.9 204.1,265.2 207.4,270.0 210.8,265.2 214.1,270.0 217.4,270.0 220.7,270.0 224.0,270.0 227.3,270.0 230.6,270.0 233.9,270.0 237.2,270.0 240.5,270.0 243.8,270.0 247.1,265.2 250.4,270.0 253.7,270.0 257.0,270.0 260.3,270.0 263.6,270.0 266.9,270.0 270.3,265.2 273.6,270.0 276.9,270.0 280.2,270.0 283.5,270.0 286.8,270.0 290.1,270.0 293.4,270.0 296.7,270.0 300.0,270.0 303.3,270.0 306.6,270.0 309.9,270.0 313.2,270.0 316.5,270.0 319.8,270.0 323.1,270.0 326.5,270.0 329.8,270.0 333.1,270.0 336.4,270.0 339.7,270.0 343.0,270.0 346.3,270.0 349.6,270.0 352.9,270.0 356.2,270.0 359.5,270.0 362.8,270.0 366.1,270.0 369.4,270.0 372.7,270.0 376.0,270.0 379.3,270.0 382.6,270.0 386.0,270.0 389.3,270.0 392.6,270.0 395.9,270.0 399.2,270.0 402.5,270.0 405.8,270.0 409.1,270.0 412.4,270.0 415.7,270.0 419.0,270.0 422.3,270.0 425.6,270.0 428.9,270.0 432.2,270.0 435.5,270.0 438.8,270.0 442.1,270.0 445.5,270.0 448.8,270.0 452.1,270.0 455.4,270.0 458.7,270.0 462.0,270.0 465.3,270.0 468.6,270.0 471.9,270.0 475.2,270.0 478.5,270.0 481.8,270.0 485.1,270.0 488.4,270.0 491.7,270.0 495.0,270.0 498.3,270.0 501.6,270.0 505.0,270.0 508.3,270.0 511.6,270.0 514.9,270.0 518.2,270.0 521.5,270.0 524.8,270.0 528.1,270.0 531.4,270.0 534.7,270.0 538.0,270.0 541.3,270.0 544.6,270.0 547.9,270.0 551.2,270.0 554.5,270.0 557.8,270.0 561.2,270.0 564.5,270.0 567.8,270.0 571.1,270.0 574.4,270.0 577.7,270.0 581.0,270.0 584.3,270.0 587.6,270.0 590.9,270.0 594.2,270.0 597.5,270.0 600.8,270.0 604.1,270.0 607.4,270.0 610.7,270.0 614.0,270.0 617.3,270.0 620.7,270.0 624.0,255.6 627.3,250.7 630.6,265.2 633.9,265.2 637.2,250.7 640.5,265.2 643.8,270.0 647.1,270.0 650.4,270.0 653.7,270.0 657.0,270.0 660.3,270.0 663.6,270.0 666.9,270.0 670.2,270.0 673.5,270.0 676.8,270.0 680.2,270.0 683.5,270.0 686.8,270.0 690.1,270.0 693.4,270.0 696.7,270.0 700.0,270.0 703.3,270.0 706.6,265.2 709.9,265.2 713.2,265.2 716.5,265.2 719.8,270.0 723.1,270.0 726.4,270.0 729.7,250.7 733.0,265.2 736.4,270.0 739.7,270.0 743.0,270.0 746.3,270.0 749.6,270.0 752.9,270.0 756.2,270.0 759.5,270.0 762.8,270.0 766.1,270.0 769.4,270.0 772.7,270.0 776.0,270.0 779.3,270.0 782.6,270.0 785.9,270.0 789.2,270.0 792.5,270.0 795.9,270.0 799.2,270.0 802.5,270.0 805.8,270.0 809.1,270.0 812.4,270.0 815.7,270.0 819.0,270.0 822.3,270.0 825.6,270.0 828.9,270.0 832.2,270.0 835.5,270.0 838.8,270.0 842.1,270.0 845.4,270.0 848.7,270.0 852.0,270.0 855.4,270.0 858.7,270.0 862.0,270.0 865.3,270.0 868.6,270.0 871.9,270.0 875.2,270.0 878.5,270.0 881.8,270.0 885.1,270.0 888.4,270.0 891.7,270.0 895.0,270.0 898.3,270.0 901.6,270.0 904.9,270.0 908.2,270.0 911.5,270.0 914.9,270.0 918.2,270.0 921.5,270.0 924.8,270.0 928.1,270.0 931.4,270.0 934.7,270.0 938.0,270.0 941.3,270.0 944.6,270.0 947.9,270.0 951.2,270.0 954.5,270.0 957.8,270.0 961.1,270.0 964.4,270.0 967.7,270.0 971.1,270.0 974.4,231.5 977.7,245.9 981.0,270.0 984.3,270.0 987.6,270.0 990.9,270.0 994.2,270.0 997.5,270.0 1000.8,270.0 1004.1,270.0 1007.4,270.0 1010.7,270.0 1014.0,270.0 1017.3,270.0 1020.6,270.0 1023.9,270.0 1027.2,270.0 1030.6,270.0 1033.9,270.0 1037.2,270.0 1040.5,270.0 1043.8,270.0 1047.1,270.0 1050.4,270.0 1053.7,270.0 1057.0,270.0 1060.3,270.0 1063.6,270.0 1066.9,270.0 1070.2,270.0 1073.5,270.0 1076.8,270.0 1080.1,270.0 1083.4,270.0 1086.7,212.2 1090.1,260.4 1093.4,250.7 1096.7,221.9 1100.0,236.3 1103.3,245.9 1106.6,236.3 1109.9,236.3 1113.2,255.6 1116.5,212.2 1119.8,245.9 1123.1,250.7 1126.4,245.9 1129.7,250.7 1133.0,255.6 1136.3,255.6 1139.6,236.3 1142.9,260.4 1146.2,250.7 1149.6,226.7 1152.9,260.4 1156.2,241.1 1159.5,245.9 1162.8,260.4 1166.1,231.5 1169.4,241.1 1172.7,255.6 1176.0,241.1 1176.0,270.0 1172.7,270.0 1169.4,270.0 1166.1,270.0 1162.8,270.0 1159.5,270.0 1156.2,270.0 1152.9,270.0 1149.6,270.0 1146.2,270.0 1142.9,270.0 1139.6,270.0 1136.3,270.0 1133.0,270.0 1129.7,270.0 1126.4,270.0 1123.1,270.0 1119.8,270.0 1116.5,270.0 1113.2,270.0 1109.9,270.0 1106.6,270.0 1103.3,270.0 1100.0,270.0 1096.7,270.0 1093.4,270.0 1090.1,270.0 1086.7,270.0 1083.4,270.0 1080.1,270.0 1076.8,270.0 1073.5,270.0 1070.2,270.0 1066.9,270.0 1063.6,270.0 1060.3,270.0 1057.0,270.0 1053.7,270.0 1050.4,270.0 1047.1,270.0 1043.8,270.0 1040.5,270.0 1037.2,270.0 1033.9,270.0 1030.6,270.0 1027.2,270.0 1023.9,270.0 1020.6,270.0 1017.3,270.0 1014.0,270.0 1010.7,270.0 1007.4,270.0 1004.1,270.0 1000.8,270.0 997.5,270.0 994.2,270.0 990.9,270.0 987.6,270.0 984.3,270.0 981.0,270.0 977.7,270.0 974.4,270.0 971.1,270.0 967.7,270.0 964.4,270.0 961.1,270.0 957.8,270.0 954.5,270.0 951.2,270.0 947.9,270.0 944.6,270.0 941.3,270.0 938.0,270.0 934.7,270.0 931.4,270.0 928.1,270.0 924.8,270.0 921.5,270.0 918.2,270.0 914.9,270.0 911.5,270.0 908.2,270.0 904.9,270.0 901.6,270.0 898.3,270.0 895.0,270.0 891.7,270.0 888.4,270.0 885.1,270.0 881.8,270.0 878.5,270.0 875.2,270.0 871.9,270.0 868.6,270.0 865.3,270.0 862.0,270.0 858.7,270.0 855.4,270.0 852.0,270.0 848.7,270.0 845.4,270.0 842.1,270.0 838.8,270.0 835.5,270.0 832.2,270.0 828.9,270.0 825.6,270.0 822.3,270.0 819.0,270.0 815.7,270.0 812.4,270.0 809.1,270.0 805.8,270.0 802.5,270.0 799.2,270.0 795.9,270.0 792.5,270.0 789.2,270.0 785.9,270.0 782.6,270.0 779.3,270.0 776.0,270.0 772.7,270.0 769.4,270.0 766.1,270.0 762.8,270.0 759.5,270.0 756.2,270.0 752.9,270.0 749.6,270.0 746.3,270.0 743.0,270.0 739.7,270.0 736.4,270.0 733.0,270.0 729.7,270.0 726.4,270.0 723.1,270.0 719.8,270.0 716.5,270.0 713.2,270.0 709.9,270.0 706.6,270.0 703.3,270.0 700.0,270.0 696.7,270.0 693.4,270.0 690.1,270.0 686.8,270.0 683.5,270.0 680.2,270.0 676.8,270.0 673.5,270.0 670.2,270.0 666.9,270.0 663.6,270.0 660.3,270.0 657.0,270.0 653.7,270.0 650.4,270.0 647.1,270.0 643.8,270.0 640.5,270.0 637.2,270.0 633.9,270.0 630.6,270.0 627.3,270.0 624.0,270.0 620.7,270.0 617.3,270.0 614.0,270.0 610.7,270.0 607.4,270.0 604.1,270.0 600.8,270.0 597.5,270.0 594.2,270.0 590.9,270.0 587.6,270.0 584.3,270.0 581.0,270.0 577.7,270.0 574.4,270.0 571.1,270.0 567.8,270.0 564.5,270.0 561.2,270.0 557.8,270.0 554.5,270.0 551.2,270.0 547.9,270.0 544.6,270.0 541.3,270.0 538.0,270.0 534.7,270.0 531.4,270.0 528.1,270.0 524.8,270.0 521.5,270.0 518.2,270.0 514.9,270.0 511.6,270.0 508.3,270.0 505.0,270.0 501.6,270.0 498.3,270.0 495.0,270.0 491.7,270.0 488.4,270.0 485.1,270.0 481.8,270.0 478.5,270.0 475.2,270.0 471.9,270.0 468.6,270.0 465.3,270.0 462.0,270.0 458.7,270.0 455.4,270.0 452.1,270.0 448.8,270.0 445.5,270.0 442.1,270.0 438.8,270.0 435.5,270.0 432.2,270.0 428.9,270.0 425.6,270.0 422.3,270.0 419.0,270.0 415.7,270.0 412.4,270.0 409.1,270.0 405.8,270.0 402.5,270.0 399.2,270.0 395.9,270.0 392.6,270.0 389.3,270.0 386.0,270.0 382.6,270.0 379.3,270.0 376.0,270.0 372.7,270.0 369.4,270.0 366.1,270.0 362.8,270.0 359.5,270.0 356.2,270.0 352.9,270.0 349.6,270.0 346.3,270.0 343.0,270.0 339.7,270.0 336.4,270.0 333.1,270.0 329.8,270.0 326.5,270.0 323.1,270.0 319.8,270.0 316.5,270.0 313.2,270.0 309.9,270.0 306.6,270.0 303.3,270.0 300.0,270.0 296.7,270.0 293.4,270.0 290.1,270.0 286.8,270.0 283.5,270.0 280.2,270.0 276.9,270.0 273.6,270.0 270.3,270.0 266.9,270.0 263.6,270.0 260.3,270.0 257.0,270.0 253.7,270.0 250.4,270.0 247.1,270.0 243.8,270.0 240.5,270.0 237.2,270.0 233.9,270.0 230.6,270.0 227.3,270.0 224.0,270.0 220.7,270.0 217.4,270.0 214.1,270.0 210.8,270.0 207.4,270.0 204.1,270.0 200.8,270.0 197.5,270.0 194.2,270.0 190.9,270.0 187.6,270.0 184.3,270.0 181.0,270.0 177.7,270.0 174.4,270.0 171.1,270.0 167.8,270.0 164.5,270.0 161.2,270.0 157.9,270.0 154.6,270.0 151.3,270.0 147.9,270.0 144.6,270.0 141.3,270.0 138.0,270.0 134.7,270.0 131.4,270.0 128.1,270.0 124.8,270.0 121.5,270.0 118.2,270.0 114.9,270.0 111.6,270.0 108.3,270.0 105.0,270.0 101.7,270.0 98.4,270.0 95.1,270.0 91.8,270.0 88.4,270.0 85.1,270.0 81.8,270.0 78.5,270.0 75.2,270.0 71.9,270.0 68.6,270.0 65.3,270.0 62.0,270.0" fill="#58a6ff" fill-opacity="0.75"/>
<polygon points="62.0,255.6 65.3,193.0 68.6,178.5 71.9,236.3 75.2,221.9 78.5,202.6 81.8,77.4 85.1,217.0 88.4,207.4 91.8,212.2 95.1,231.5 98.4,250.7 101.7,197.8 105.0,207.4 108.3,207.4 111.6,241.1 114.9,231.5 118.2,231.5 121.5,231.5 124.8,231.5 128.1,236.3 131.4,221.9 134.7,212.2 138.0,270.0 141.3,202.6 144.6,212.2 147.9,236.3 151.3,226.7 154.6,226.7 157.9,221.9 161.2,207.4 164.5,245.9 167.8,231.5 171.1,217.0 174.4,193.0 177.7,245.9 181.0,207.4 184.3,226.7 187.6,236.3 190.9,245.9 194.2,221.9 197.5,241.1 200.8,245.9 204.1,265.2 207.4,270.0 210.8,265.2 214.1,270.0 217.4,270.0 220.7,270.0 224.0,270.0 227.3,270.0 230.6,270.0 233.9,270.0 237.2,270.0 240.5,270.0 243.8,270.0 247.1,265.2 250.4,270.0 253.7,270.0 257.0,270.0 260.3,270.0 263.6,270.0 266.9,270.0 270.3,265.2 273.6,270.0 276.9,270.0 280.2,270.0 283.5,270.0 286.8,270.0 290.1,270.0 293.4,270.0 296.7,270.0 300.0,270.0 303.3,270.0 306.6,270.0 309.9,270.0 313.2,270.0 316.5,270.0 319.8,270.0 323.1,270.0 326.5,270.0 329.8,270.0 333.1,270.0 336.4,270.0 339.7,270.0 343.0,270.0 346.3,270.0 349.6,270.0 352.9,270.0 356.2,270.0 359.5,270.0 362.8,270.0 366.1,270.0 369.4,270.0 372.7,270.0 376.0,270.0 379.3,270.0 382.6,270.0 386.0,270.0 389.3,270.0 392.6,270.0 395.9,270.0 399.2,270.0 402.5,270.0 405.8,270.0 409.1,270.0 412.4,270.0 415.7,270.0 419.0,270.0 422.3,270.0 425.6,270.0 428.9,270.0 432.2,270.0 435.5,270.0 438.8,270.0 442.1,270.0 445.5,270.0 448.8,270.0 452.1,270.0 455.4,270.0 458.7,270.0 462.0,270.0 465.3,270.0 468.6,270.0 471.9,270.0 475.2,270.0 478.5,270.0 481.8,270.0 485.1,270.0 488.4,270.0 491.7,270.0 495.0,270.0 498.3,270.0 501.6,270.0 505.0,270.0 508.3,270.0 511.6,270.0 514.9,270.0 518.2,270.0 521.5,270.0 524.8,270.0 528.1,270.0 531.4,270.0 534.7,270.0 538.0,270.0 541.3,270.0 544.6,270.0 547.9,270.0 551.2,270.0 554.5,270.0 557.8,270.0 561.2,270.0 564.5,270.0 567.8,270.0 571.1,270.0 574.4,270.0 577.7,270.0 581.0,270.0 584.3,270.0 587.6,270.0 590.9,270.0 594.2,270.0 597.5,270.0 600.8,270.0 604.1,270.0 607.4,270.0 610.7,270.0 614.0,270.0 617.3,270.0 620.7,270.0 624.0,255.6 627.3,250.7 630.6,265.2 633.9,265.2 637.2,250.7 640.5,265.2 643.8,270.0 647.1,270.0 650.4,270.0 653.7,270.0 657.0,270.0 660.3,270.0 663.6,270.0 666.9,270.0 670.2,270.0 673.5,270.0 676.8,270.0 680.2,270.0 683.5,270.0 686.8,270.0 690.1,270.0 693.4,270.0 696.7,270.0 700.0,270.0 703.3,270.0 706.6,265.2 709.9,265.2 713.2,265.2 716.5,265.2 719.8,270.0 723.1,270.0 726.4,270.0 729.7,250.7 733.0,265.2 736.4,270.0 739.7,270.0 743.0,270.0 746.3,270.0 749.6,270.0 752.9,270.0 756.2,270.0 759.5,270.0 762.8,270.0 766.1,270.0 769.4,270.0 772.7,270.0 776.0,270.0 779.3,270.0 782.6,270.0 785.9,270.0 789.2,270.0 792.5,270.0 795.9,270.0 799.2,270.0 802.5,270.0 805.8,270.0 809.1,270.0 812.4,270.0 815.7,270.0 819.0,270.0 822.3,270.0 825.6,270.0 828.9,270.0 832.2,270.0 835.5,270.0 838.8,270.0 842.1,270.0 845.4,270.0 848.7,270.0 852.0,270.0 855.4,270.0 858.7,270.0 862.0,270.0 865.3,270.0 868.6,270.0 871.9,270.0 875.2,270.0 878.5,270.0 881.8,270.0 885.1,270.0 888.4,270.0 891.7,270.0 895.0,270.0 898.3,270.0 901.6,270.0 904.9,270.0 908.2,270.0 911.5,270.0 914.9,270.0 918.2,270.0 921.5,270.0 924.8,270.0 928.1,270.0 931.4,270.0 934.7,270.0 938.0,270.0 941.3,270.0 944.6,270.0 947.9,270.0 951.2,270.0 954.5,270.0 957.8,270.0 961.1,270.0 964.4,270.0 967.7,270.0 971.1,270.0 974.4,231.5 977.7,245.9 981.0,270.0 984.3,270.0 987.6,270.0 990.9,270.0 994.2,270.0 997.5,270.0 1000.8,270.0 1004.1,270.0 1007.4,270.0 1010.7,270.0 1014.0,270.0 1017.3,270.0 1020.6,270.0 1023.9,270.0 1027.2,270.0 1030.6,270.0 1033.9,270.0 1037.2,270.0 1040.5,270.0 1043.8,270.0 1047.1,270.0 1050.4,270.0 1053.7,270.0 1057.0,270.0 1060.3,270.0 1063.6,270.0 1066.9,270.0 1070.2,270.0 1073.5,270.0 1076.8,270.0 1080.1,270.0 1083.4,270.0 1086.7,212.2 1090.1,260.4 1093.4,250.7 1096.7,221.9 1100.0,236.3 1103.3,245.9 1106.6,236.3 1109.9,236.3 1113.2,226.7 1116.5,212.2 1119.8,245.9 1123.1,236.3 1126.4,241.1 1129.7,241.1 1133.0,245.9 1136.3,255.6 1139.6,197.8 1142.9,250.7 1146.2,217.0 1149.6,212.2 1152.9,260.4 1156.2,226.7 1159.5,115.9 1162.8,91.9 1166.1,144.8 1169.4,183.3 1172.7,207.4 1176.0,217.0 1176.0,241.1 1172.7,255.6 1169.4,241.1 1166.1,231.5 1162.8,260.4 1159.5,245.9 1156.2,241.1 1152.9,260.4 1149.6,226.7 1146.2,250.7 1142.9,260.4 1139.6,236.3 1136.3,255.6 1133.0,255.6 1129.7,250.7 1126.4,245.9 1123.1,250.7 1119.8,245.9 1116.5,212.2 1113.2,255.6 1109.9,236.3 1106.6,236.3 1103.3,245.9 1100.0,236.3 1096.7,221.9 1093.4,250.7 1090.1,260.4 1086.7,212.2 1083.4,270.0 1080.1,270.0 1076.8,270.0 1073.5,270.0 1070.2,270.0 1066.9,270.0 1063.6,270.0 1060.3,270.0 1057.0,270.0 1053.7,270.0 1050.4,270.0 1047.1,270.0 1043.8,270.0 1040.5,270.0 1037.2,270.0 1033.9,270.0 1030.6,270.0 1027.2,270.0 1023.9,270.0 1020.6,270.0 1017.3,270.0 1014.0,270.0 1010.7,270.0 1007.4,270.0 1004.1,270.0 1000.8,270.0 997.5,270.0 994.2,270.0 990.9,270.0 987.6,270.0 984.3,270.0 981.0,270.0 977.7,245.9 974.4,231.5 971.1,270.0 967.7,270.0 964.4,270.0 961.1,270.0 957.8,270.0 954.5,270.0 951.2,270.0 947.9,270.0 944.6,270.0 941.3,270.0 938.0,270.0 934.7,270.0 931.4,270.0 928.1,270.0 924.8,270.0 921.5,270.0 918.2,270.0 914.9,270.0 911.5,270.0 908.2,270.0 904.9,270.0 901.6,270.0 898.3,270.0 895.0,270.0 891.7,270.0 888.4,270.0 885.1,270.0 881.8,270.0 878.5,270.0 875.2,270.0 871.9,270.0 868.6,270.0 865.3,270.0 862.0,270.0 858.7,270.0 855.4,270.0 852.0,270.0 848.7,270.0 845.4,270.0 842.1,270.0 838.8,270.0 835.5,270.0 832.2,270.0 828.9,270.0 825.6,270.0 822.3,270.0 819.0,270.0 815.7,270.0 812.4,270.0 809.1,270.0 805.8,270.0 802.5,270.0 799.2,270.0 795.9,270.0 792.5,270.0 789.2,270.0 785.9,270.0 782.6,270.0 779.3,270.0 776.0,270.0 772.7,270.0 769.4,270.0 766.1,270.0 762.8,270.0 759.5,270.0 756.2,270.0 752.9,270.0 749.6,270.0 746.3,270.0 743.0,270.0 739.7,270.0 736.4,270.0 733.0,265.2 729.7,250.7 726.4,270.0 723.1,270.0 719.8,270.0 716.5,265.2 713.2,265.2 709.9,265.2 706.6,265.2 703.3,270.0 700.0,270.0 696.7,270.0 693.4,270.0 690.1,270.0 686.8,270.0 683.5,270.0 680.2,270.0 676.8,270.0 673.5,270.0 670.2,270.0 666.9,270.0 663.6,270.0 660.3,270.0 657.0,270.0 653.7,270.0 650.4,270.0 647.1,270.0 643.8,270.0 640.5,265.2 637.2,250.7 633.9,265.2 630.6,265.2 627.3,250.7 624.0,255.6 620.7,270.0 617.3,270.0 614.0,270.0 610.7,270.0 607.4,270.0 604.1,270.0 600.8,270.0 597.5,270.0 594.2,270.0 590.9,270.0 587.6,270.0 584.3,270.0 581.0,270.0 577.7,270.0 574.4,270.0 571.1,270.0 567.8,270.0 564.5,270.0 561.2,270.0 557.8,270.0 554.5,270.0 551.2,270.0 547.9,270.0 544.6,270.0 541.3,270.0 538.0,270.0 534.7,270.0 531.4,270.0 528.1,270.0 524.8,270.0 521.5,270.0 518.2,270.0 514.9,270.0 511.6,270.0 508.3,270.0 505.0,270.0 501.6,270.0 498.3,270.0 495.0,270.0 491.7,270.0 488.4,270.0 485.1,270.0 481.8,270.0 478.5,270.0 475.2,270.0 471.9,270.0 468.6,270.0 465.3,270.0 462.0,270.0 458.7,270.0 455.4,270.0 452.1,270.0 448.8,270.0 445.5,270.0 442.1,270.0 438.8,270.0 435.5,270.0 432.2,270.0 428.9,270.0 425.6,270.0 422.3,270.0 419.0,270.0 415.7,270.0 412.4,270.0 409.1,270.0 405.8,270.0 402.5,270.0 399.2,270.0 395.9,270.0 392.6,270.0 389.3,270.0 386.0,270.0 382.6,270.0 379.3,270.0 376.0,270.0 372.7,270.0 369.4,270.0 366.1,270.0 362.8,270.0 359.5,270.0 356.2,270.0 352.9,270.0 349.6,270.0 346.3,270.0 343.0,270.0 339.7,270.0 336.4,270.0 333.1,270.0 329.8,270.0 326.5,270.0 323.1,270.0 319.8,270.0 316.5,270.0 313.2,270.0 309.9,270.0 306.6,270.0 303.3,270.0 300.0,270.0 296.7,270.0 293.4,270.0 290.1,270.0 286.8,270.0 283.5,270.0 280.2,270.0 276.9,270.0 273.6,270.0 270.3,265.2 266.9,270.0 263.6,270.0 260.3,270.0 257.0,270.0 253.7,270.0 250.4,270.0 247.1,265.2 243.8,270.0 240.5,270.0 237.2,270.0 233.9,270.0 230.6,270.0 227.3,270.0 224.0,270.0 220.7,270.0 217.4,270.0 214.1,270.0 210.8,265.2 207.4,270.0 204.1,265.2 200.8,245.9 197.5,241.1 194.2,221.9 190.9,245.9 187.6,236.3 184.3,226.7 181.0,207.4 177.7,245.9 174.4,193.0 171.1,217.0 167.8,231.5 164.5,245.9 161.2,207.4 157.9,221.9 154.6,226.7 151.3,226.7 147.9,236.3 144.6,212.2 141.3,202.6 138.0,270.0 134.7,212.2 131.4,221.9 128.1,236.3 124.8,231.5 121.5,231.5 118.2,231.5 114.9,231.5 111.6,241.1 108.3,207.4 105.0,207.4 101.7,197.8 98.4,250.7 95.1,231.5 91.8,212.2 88.4,207.4 85.1,217.0 81.8,77.4 78.5,202.6 75.2,221.9 71.9,236.3 68.6,178.5 65.3,193.0 62.0,255.6" fill="#3fb950" fill-opacity="0.75"/>
<polyline points="62.0,255.6 65.3,224.3 68.6,209.0 71.9,215.8 75.2,217.0 78.5,214.6 81.8,195.0 85.1,189.5 88.4,191.6 91.8,196.4 95.1,195.7 98.4,199.8 101.7,199.2 105.0,217.7 108.3,216.3 111.6,221.2 114.9,223.9 118.2,223.9 121.5,221.2 124.8,226.0 128.1,230.1 131.4,232.2 134.7,228.0 138.0,233.5 141.3,229.4 144.6,226.7 147.9,227.4 151.3,226.0 154.6,226.7 157.9,228.0 161.2,219.1 164.5,225.3 167.8,228.0 171.1,225.3 174.4,220.5 177.7,223.2 181.0,221.2 184.3,223.9 187.6,222.5 190.9,224.6 194.2,225.3 197.5,232.2 200.8,232.2 204.1,240.4 207.4,246.6 210.8,250.7 214.1,254.2 217.4,261.1 220.7,265.2 224.0,268.6 227.3,269.3 230.6,269.3 233.9,270.0 237.2,270.0 240.5,270.0 243.8,270.0 247.1,269.3 250.4,269.3 253.7,269.3 257.0,269.3 260.3,269.3 263.6,269.3 266.9,269.3 270.3,269.3 273.6,269.3 276.9,269.3 280.2,269.3 283.5,269.3 286.8,269.3 290.1,269.3 293.4,270.0 296.7,270.0 300.0,270.0 303.3,270.0 306.6,270.0 309.9,270.0 313.2,270.0 316.5,270.0 319.8,270.0 323.1,270.0 326.5,270.0 329.8,270.0 333.1,270.0 336.4,270.0 339.7,270.0 343.0,270.0 346.3,270.0 349.6,270.0 352.9,270.0 356.2,270.0 359.5,270.0 362.8,270.0 366.1,270.0 369.4,270.0 372.7,270.0 376.0,270.0 379.3,270.0 382.6,270.0 386.0,270.0 389.3,270.0 392.6,270.0 395.9,270.0 399.2,270.0 402.5,270.0 405.8,270.0 409.1,270.0 412.4,270.0 415.7,270.0 419.0,270.0 422.3,270.0 425.6,270.0 428.9,270.0 432.2,270.0 435.5,270.0 438.8,270.0 442.1,270.0 445.5,270.0 448.8,270.0 452.1,270.0 455.4,270.0 458.7,270.0 462.0,270.0 465.3,270.0 468.6,270.0 471.9,270.0 475.2,270.0 478.5,270.0 481.8,270.0 485.1,270.0 488.4,270.0 491.7,270.0 495.0,270.0 498.3,270.0 501.6,270.0 505.0,270.0 508.3,270.0 511.6,270.0 514.9,270.0 518.2,270.0 521.5,270.0 524.8,270.0 528.1,270.0 531.4,270.0 534.7,270.0 538.0,270.0 541.3,270.0 544.6,270.0 547.9,270.0 551.2,270.0 554.5,270.0 557.8,270.0 561.2,270.0 564.5,270.0 567.8,270.0 571.1,270.0 574.4,270.0 577.7,270.0 581.0,270.0 584.3,270.0 587.6,270.0 590.9,270.0 594.2,270.0 597.5,270.0 600.8,270.0 604.1,270.0 607.4,270.0 610.7,270.0 614.0,270.0 617.3,270.0 620.7,270.0 624.0,267.9 627.3,265.2 630.6,264.5 633.9,263.8 637.2,261.1 640.5,260.4 643.8,260.4 647.1,262.4 650.4,265.2 653.7,265.9 657.0,266.6 660.3,269.3 663.6,270.0 666.9,270.0 670.2,270.0 673.5,270.0 676.8,270.0 680.2,270.0 683.5,270.0 686.8,270.0 690.1,270.0 693.4,270.0 696.7,270.0 700.0,270.0 703.3,270.0 706.6,269.3 709.9,268.6 713.2,267.9 716.5,267.2 719.8,267.2 723.1,267.2 726.4,267.2 729.7,265.2 733.0,265.2 736.4,265.9 739.7,266.6 743.0,266.6 746.3,266.6 749.6,266.6 752.9,269.3 756.2,270.0 759.5,270.0 762.8,270.0 766.1,270.0 769.4,270.0 772.7,270.0 776.0,270.0 779.3,270.0 782.6,270.0 785.9,270.0 789.2,270.0 792.5,270.0 795.9,270.0 799.2,270.0 802.5,270.0 805.8,270.0 809.1,270.0 812.4,270.0 815.7,270.0 819.0,270.0 822.3,270.0 825.6,270.0 828.9,270.0 832.2,270.0 835.5,270.0 838.8,270.0 842.1,270.0 845.4,270.0 848.7,270.0 852.0,270.0 855.4,270.0 858.7,270.0 862.0,270.0 865.3,270.0 868.6,270.0 871.9,270.0 875.2,270.0 878.5,270.0 881.8,270.0 885.1,270.0 888.4,270.0 891.7,270.0 895.0,270.0 898.3,270.0 901.6,270.0 904.9,270.0 908.2,270.0 911.5,270.0 914.9,270.0 918.2,270.0 921.5,270.0 924.8,270.0 928.1,270.0 931.4,270.0 934.7,270.0 938.0,270.0 941.3,270.0 944.6,270.0 947.9,270.0 951.2,270.0 954.5,270.0 957.8,270.0 961.1,270.0 964.4,270.0 967.7,270.0 971.1,270.0 974.4,264.5 977.7,261.1 981.0,261.1 984.3,261.1 987.6,261.1 990.9,261.1 994.2,261.1 997.5,266.6 1000.8,270.0 1004.1,270.0 1007.4,270.0 1010.7,270.0 1014.0,270.0 1017.3,270.0 1020.6,270.0 1023.9,270.0 1027.2,270.0 1030.6,270.0 1033.9,270.0 1037.2,270.0 1040.5,270.0 1043.8,270.0 1047.1,270.0 1050.4,270.0 1053.7,270.0 1057.0,270.0 1060.3,270.0 1063.6,270.0 1066.9,270.0 1070.2,270.0 1073.5,270.0 1076.8,270.0 1080.1,270.0 1083.4,270.0 1086.7,261.7 1090.1,260.4 1093.4,257.6 1096.7,250.7 1100.0,245.9 1103.3,242.5 1106.6,237.7 1109.9,241.1 1113.2,236.3 1116.5,230.8 1119.8,234.2 1123.1,234.2 1126.4,233.5 1129.7,234.2 1133.0,235.6 1136.3,239.7 1139.6,237.7 1142.9,238.4 1146.2,235.6 1149.6,231.5 1152.9,234.2 1156.2,231.5 1159.5,211.5 1162.8,196.4 1166.1,181.3 1169.4,176.5 1172.7,175.8 1176.0,169.6" fill="none" stroke="#f0f6fc" stroke-width="1.6" stroke-dasharray="6 4"/>
<text x="62" y="312" font-size="12" fill="#c9d1d9">unique per day: problems (blue) + drill rungs (green), stacked; dashed = 7-day average</text>
<line x1="62" y1="500.0" x2="1176" y2="500.0" stroke="#21262d" stroke-width="1"/>
<text x="54" y="504.0" text-anchor="end" font-size="11" fill="#8b949e">0</text>
<line x1="62" y1="479.4" x2="1176" y2="479.4" stroke="#21262d" stroke-width="1"/>
<text x="54" y="483.4" text-anchor="end" font-size="11" fill="#8b949e">5</text>
<line x1="62" y1="458.8" x2="1176" y2="458.8" stroke="#21262d" stroke-width="1"/>
<text x="54" y="462.8" text-anchor="end" font-size="11" fill="#8b949e">10</text>
<line x1="62" y1="438.2" x2="1176" y2="438.2" stroke="#21262d" stroke-width="1"/>
<text x="54" y="442.2" text-anchor="end" font-size="11" fill="#8b949e">15</text>
<line x1="62" y1="417.6" x2="1176" y2="417.6" stroke="#21262d" stroke-width="1"/>
<text x="54" y="421.6" text-anchor="end" font-size="11" fill="#8b949e">20</text>
<line x1="62" y1="397.0" x2="1176" y2="397.0" stroke="#21262d" stroke-width="1"/>
<text x="54" y="401.0" text-anchor="end" font-size="11" fill="#8b949e">25</text>
<line x1="62" y1="376.4" x2="1176" y2="376.4" stroke="#21262d" stroke-width="1"/>
<text x="54" y="380.4" text-anchor="end" font-size="11" fill="#8b949e">30</text>
<line x1="62" y1="355.8" x2="1176" y2="355.8" stroke="#21262d" stroke-width="1"/>
<text x="54" y="359.8" text-anchor="end" font-size="11" fill="#8b949e">35</text>
<line x1="62" y1="335.2" x2="1176" y2="335.2" stroke="#21262d" stroke-width="1"/>
<text x="54" y="339.2" text-anchor="end" font-size="11" fill="#8b949e">40</text>
<polygon points="62.0,487.6 65.3,434.1 68.6,421.7 71.9,471.2 75.2,458.8 78.5,442.3 81.8,335.2 85.1,454.7 88.4,446.4 91.8,450.6 95.1,467.0 98.4,483.5 101.7,438.2 105.0,446.4 108.3,446.4 111.6,475.3 114.9,467.0 118.2,467.0 121.5,467.0 124.8,467.0 128.1,471.2 131.4,462.9 134.7,467.0 138.0,500.0 141.3,450.6 144.6,450.6 147.9,471.2 151.3,462.9 154.6,462.9 157.9,458.8 161.2,450.6 164.5,479.4 167.8,467.0 171.1,454.7 174.4,438.2 177.7,479.4 181.0,446.4 184.3,467.0 187.6,471.2 190.9,479.4 194.2,458.8 197.5,475.3 200.8,479.4 204.1,495.9 207.4,500.0 210.8,495.9 214.1,500.0 217.4,500.0 220.7,500.0 224.0,500.0 227.3,500.0 230.6,500.0 233.9,500.0 237.2,500.0 240.5,500.0 243.8,500.0 247.1,495.9 250.4,500.0 253.7,500.0 257.0,500.0 260.3,500.0 263.6,500.0 266.9,500.0 270.3,495.9 273.6,500.0 276.9,500.0 280.2,500.0 283.5,500.0 286.8,500.0 290.1,500.0 293.4,500.0 296.7,500.0 300.0,500.0 303.3,500.0 306.6,500.0 309.9,500.0 313.2,500.0 316.5,500.0 319.8,500.0 323.1,500.0 326.5,500.0 329.8,500.0 333.1,500.0 336.4,500.0 339.7,500.0 343.0,500.0 346.3,500.0 349.6,500.0 352.9,500.0 356.2,500.0 359.5,500.0 362.8,500.0 366.1,500.0 369.4,500.0 372.7,500.0 376.0,500.0 379.3,500.0 382.6,500.0 386.0,500.0 389.3,500.0 392.6,500.0 395.9,500.0 399.2,500.0 402.5,500.0 405.8,500.0 409.1,500.0 412.4,500.0 415.7,500.0 419.0,500.0 422.3,500.0 425.6,500.0 428.9,500.0 432.2,500.0 435.5,500.0 438.8,500.0 442.1,500.0 445.5,500.0 448.8,500.0 452.1,500.0 455.4,500.0 458.7,500.0 462.0,500.0 465.3,500.0 468.6,500.0 471.9,500.0 475.2,500.0 478.5,500.0 481.8,500.0 485.1,500.0 488.4,500.0 491.7,500.0 495.0,500.0 498.3,500.0 501.6,500.0 505.0,500.0 508.3,500.0 511.6,500.0 514.9,500.0 518.2,500.0 521.5,500.0 524.8,500.0 528.1,500.0 531.4,500.0 534.7,500.0 538.0,500.0 541.3,500.0 544.6,500.0 547.9,500.0 551.2,500.0 554.5,500.0 557.8,500.0 561.2,500.0 564.5,500.0 567.8,500.0 571.1,500.0 574.4,500.0 577.7,500.0 581.0,500.0 584.3,500.0 587.6,500.0 590.9,500.0 594.2,500.0 597.5,500.0 600.8,500.0 604.1,500.0 607.4,500.0 610.7,500.0 614.0,500.0 617.3,500.0 620.7,500.0 624.0,487.6 627.3,483.5 630.6,495.9 633.9,495.9 637.2,483.5 640.5,495.9 643.8,500.0 647.1,500.0 650.4,500.0 653.7,500.0 657.0,500.0 660.3,500.0 663.6,500.0 666.9,500.0 670.2,500.0 673.5,500.0 676.8,500.0 680.2,500.0 683.5,500.0 686.8,500.0 690.1,500.0 693.4,500.0 696.7,500.0 700.0,500.0 703.3,500.0 706.6,495.9 709.9,495.9 713.2,495.9 716.5,495.9 719.8,500.0 723.1,500.0 726.4,500.0 729.7,483.5 733.0,495.9 736.4,500.0 739.7,500.0 743.0,500.0 746.3,500.0 749.6,500.0 752.9,500.0 756.2,500.0 759.5,500.0 762.8,500.0 766.1,500.0 769.4,500.0 772.7,500.0 776.0,500.0 779.3,500.0 782.6,500.0 785.9,500.0 789.2,500.0 792.5,500.0 795.9,500.0 799.2,500.0 802.5,500.0 805.8,500.0 809.1,500.0 812.4,500.0 815.7,500.0 819.0,500.0 822.3,500.0 825.6,500.0 828.9,500.0 832.2,500.0 835.5,500.0 838.8,500.0 842.1,500.0 845.4,500.0 848.7,500.0 852.0,500.0 855.4,500.0 858.7,500.0 862.0,500.0 865.3,500.0 868.6,500.0 871.9,500.0 875.2,500.0 878.5,500.0 881.8,500.0 885.1,500.0 888.4,500.0 891.7,500.0 895.0,500.0 898.3,500.0 901.6,500.0 904.9,500.0 908.2,500.0 911.5,500.0 914.9,500.0 918.2,500.0 921.5,500.0 924.8,500.0 928.1,500.0 931.4,500.0 934.7,500.0 938.0,500.0 941.3,500.0 944.6,500.0 947.9,500.0 951.2,500.0 954.5,500.0 957.8,500.0 961.1,500.0 964.4,500.0 967.7,500.0 971.1,500.0 974.4,467.0 977.7,479.4 981.0,500.0 984.3,500.0 987.6,500.0 990.9,500.0 994.2,500.0 997.5,500.0 1000.8,500.0 1004.1,500.0 1007.4,500.0 1010.7,500.0 1014.0,500.0 1017.3,500.0 1020.6,500.0 1023.9,500.0 1027.2,500.0 1030.6,500.0 1033.9,500.0 1037.2,500.0 1040.5,500.0 1043.8,500.0 1047.1,500.0 1050.4,500.0 1053.7,500.0 1057.0,500.0 1060.3,500.0 1063.6,500.0 1066.9,500.0 1070.2,500.0 1073.5,500.0 1076.8,500.0 1080.1,500.0 1083.4,500.0 1086.7,450.6 1090.1,491.8 1093.4,483.5 1096.7,458.8 1100.0,475.3 1103.3,479.4 1106.6,471.2 1109.9,471.2 1113.2,487.6 1116.5,450.6 1119.8,479.4 1123.1,483.5 1126.4,479.4 1129.7,483.5 1133.0,487.6 1136.3,487.6 1139.6,471.2 1142.9,491.8 1146.2,483.5 1149.6,462.9 1152.9,491.8 1156.2,475.3 1159.5,479.4 1162.8,491.8 1166.1,467.0 1169.4,475.3 1172.7,487.6 1176.0,475.3 1176.0,500.0 1172.7,500.0 1169.4,500.0 1166.1,500.0 1162.8,500.0 1159.5,500.0 1156.2,500.0 1152.9,500.0 1149.6,500.0 1146.2,500.0 1142.9,500.0 1139.6,500.0 1136.3,500.0 1133.0,500.0 1129.7,500.0 1126.4,500.0 1123.1,500.0 1119.8,500.0 1116.5,500.0 1113.2,500.0 1109.9,500.0 1106.6,500.0 1103.3,500.0 1100.0,500.0 1096.7,500.0 1093.4,500.0 1090.1,500.0 1086.7,500.0 1083.4,500.0 1080.1,500.0 1076.8,500.0 1073.5,500.0 1070.2,500.0 1066.9,500.0 1063.6,500.0 1060.3,500.0 1057.0,500.0 1053.7,500.0 1050.4,500.0 1047.1,500.0 1043.8,500.0 1040.5,500.0 1037.2,500.0 1033.9,500.0 1030.6,500.0 1027.2,500.0 1023.9,500.0 1020.6,500.0 1017.3,500.0 1014.0,500.0 1010.7,500.0 1007.4,500.0 1004.1,500.0 1000.8,500.0 997.5,500.0 994.2,500.0 990.9,500.0 987.6,500.0 984.3,500.0 981.0,500.0 977.7,500.0 974.4,500.0 971.1,500.0 967.7,500.0 964.4,500.0 961.1,500.0 957.8,500.0 954.5,500.0 951.2,500.0 947.9,500.0 944.6,500.0 941.3,500.0 938.0,500.0 934.7,500.0 931.4,500.0 928.1,500.0 924.8,500.0 921.5,500.0 918.2,500.0 914.9,500.0 911.5,500.0 908.2,500.0 904.9,500.0 901.6,500.0 898.3,500.0 895.0,500.0 891.7,500.0 888.4,500.0 885.1,500.0 881.8,500.0 878.5,500.0 875.2,500.0 871.9,500.0 868.6,500.0 865.3,500.0 862.0,500.0 858.7,500.0 855.4,500.0 852.0,500.0 848.7,500.0 845.4,500.0 842.1,500.0 838.8,500.0 835.5,500.0 832.2,500.0 828.9,500.0 825.6,500.0 822.3,500.0 819.0,500.0 815.7,500.0 812.4,500.0 809.1,500.0 805.8,500.0 802.5,500.0 799.2,500.0 795.9,500.0 792.5,500.0 789.2,500.0 785.9,500.0 782.6,500.0 779.3,500.0 776.0,500.0 772.7,500.0 769.4,500.0 766.1,500.0 762.8,500.0 759.5,500.0 756.2,500.0 752.9,500.0 749.6,500.0 746.3,500.0 743.0,500.0 739.7,500.0 736.4,500.0 733.0,500.0 729.7,500.0 726.4,500.0 723.1,500.0 719.8,500.0 716.5,500.0 713.2,500.0 709.9,500.0 706.6,500.0 703.3,500.0 700.0,500.0 696.7,500.0 693.4,500.0 690.1,500.0 686.8,500.0 683.5,500.0 680.2,500.0 676.8,500.0 673.5,500.0 670.2,500.0 666.9,500.0 663.6,500.0 660.3,500.0 657.0,500.0 653.7,500.0 650.4,500.0 647.1,500.0 643.8,500.0 640.5,500.0 637.2,500.0 633.9,500.0 630.6,500.0 627.3,500.0 624.0,500.0 620.7,500.0 617.3,500.0 614.0,500.0 610.7,500.0 607.4,500.0 604.1,500.0 600.8,500.0 597.5,500.0 594.2,500.0 590.9,500.0 587.6,500.0 584.3,500.0 581.0,500.0 577.7,500.0 574.4,500.0 571.1,500.0 567.8,500.0 564.5,500.0 561.2,500.0 557.8,500.0 554.5,500.0 551.2,500.0 547.9,500.0 544.6,500.0 541.3,500.0 538.0,500.0 534.7,500.0 531.4,500.0 528.1,500.0 524.8,500.0 521.5,500.0 518.2,500.0 514.9,500.0 511.6,500.0 508.3,500.0 505.0,500.0 501.6,500.0 498.3,500.0 495.0,500.0 491.7,500.0 488.4,500.0 485.1,500.0 481.8,500.0 478.5,500.0 475.2,500.0 471.9,500.0 468.6,500.0 465.3,500.0 462.0,500.0 458.7,500.0 455.4,500.0 452.1,500.0 448.8,500.0 445.5,500.0 442.1,500.0 438.8,500.0 435.5,500.0 432.2,500.0 428.9,500.0 425.6,500.0 422.3,500.0 419.0,500.0 415.7,500.0 412.4,500.0 409.1,500.0 405.8,500.0 402.5,500.0 399.2,500.0 395.9,500.0 392.6,500.0 389.3,500.0 386.0,500.0 382.6,500.0 379.3,500.0 376.0,500.0 372.7,500.0 369.4,500.0 366.1,500.0 362.8,500.0 359.5,500.0 356.2,500.0 352.9,500.0 349.6,500.0 346.3,500.0 343.0,500.0 339.7,500.0 336.4,500.0 333.1,500.0 329.8,500.0 326.5,500.0 323.1,500.0 319.8,500.0 316.5,500.0 313.2,500.0 309.9,500.0 306.6,500.0 303.3,500.0 300.0,500.0 296.7,500.0 293.4,500.0 290.1,500.0 286.8,500.0 283.5,500.0 280.2,500.0 276.9,500.0 273.6,500.0 270.3,500.0 266.9,500.0 263.6,500.0 260.3,500.0 257.0,500.0 253.7,500.0 250.4,500.0 247.1,500.0 243.8,500.0 240.5,500.0 237.2,500.0 233.9,500.0 230.6,500.0 227.3,500.0 224.0,500.0 220.7,500.0 217.4,500.0 214.1,500.0 210.8,500.0 207.4,500.0 204.1,500.0 200.8,500.0 197.5,500.0 194.2,500.0 190.9,500.0 187.6,500.0 184.3,500.0 181.0,500.0 177.7,500.0 174.4,500.0 171.1,500.0 167.8,500.0 164.5,500.0 161.2,500.0 157.9,500.0 154.6,500.0 151.3,500.0 147.9,500.0 144.6,500.0 141.3,500.0 138.0,500.0 134.7,500.0 131.4,500.0 128.1,500.0 124.8,500.0 121.5,500.0 118.2,500.0 114.9,500.0 111.6,500.0 108.3,500.0 105.0,500.0 101.7,500.0 98.4,500.0 95.1,500.0 91.8,500.0 88.4,500.0 85.1,500.0 81.8,500.0 78.5,500.0 75.2,500.0 71.9,500.0 68.6,500.0 65.3,500.0 62.0,500.0" fill="#58a6ff" fill-opacity="0.75"/>
<polygon points="62.0,487.6 65.3,434.1 68.6,421.7 71.9,471.2 75.2,458.8 78.5,442.3 81.8,335.2 85.1,454.7 88.4,446.4 91.8,450.6 95.1,467.0 98.4,483.5 101.7,438.2 105.0,446.4 108.3,446.4 111.6,475.3 114.9,467.0 118.2,467.0 121.5,467.0 124.8,467.0 128.1,471.2 131.4,462.9 134.7,467.0 138.0,500.0 141.3,450.6 144.6,450.6 147.9,471.2 151.3,462.9 154.6,462.9 157.9,458.8 161.2,450.6 164.5,479.4 167.8,467.0 171.1,454.7 174.4,438.2 177.7,479.4 181.0,446.4 184.3,467.0 187.6,471.2 190.9,479.4 194.2,458.8 197.5,475.3 200.8,479.4 204.1,495.9 207.4,500.0 210.8,495.9 214.1,500.0 217.4,500.0 220.7,500.0 224.0,500.0 227.3,500.0 230.6,500.0 233.9,500.0 237.2,500.0 240.5,500.0 243.8,500.0 247.1,495.9 250.4,500.0 253.7,500.0 257.0,500.0 260.3,500.0 263.6,500.0 266.9,500.0 270.3,495.9 273.6,500.0 276.9,500.0 280.2,500.0 283.5,500.0 286.8,500.0 290.1,500.0 293.4,500.0 296.7,500.0 300.0,500.0 303.3,500.0 306.6,500.0 309.9,500.0 313.2,500.0 316.5,500.0 319.8,500.0 323.1,500.0 326.5,500.0 329.8,500.0 333.1,500.0 336.4,500.0 339.7,500.0 343.0,500.0 346.3,500.0 349.6,500.0 352.9,500.0 356.2,500.0 359.5,500.0 362.8,500.0 366.1,500.0 369.4,500.0 372.7,500.0 376.0,500.0 379.3,500.0 382.6,500.0 386.0,500.0 389.3,500.0 392.6,500.0 395.9,500.0 399.2,500.0 402.5,500.0 405.8,500.0 409.1,500.0 412.4,500.0 415.7,500.0 419.0,500.0 422.3,500.0 425.6,500.0 428.9,500.0 432.2,500.0 435.5,500.0 438.8,500.0 442.1,500.0 445.5,500.0 448.8,500.0 452.1,500.0 455.4,500.0 458.7,500.0 462.0,500.0 465.3,500.0 468.6,500.0 471.9,500.0 475.2,500.0 478.5,500.0 481.8,500.0 485.1,500.0 488.4,500.0 491.7,500.0 495.0,500.0 498.3,500.0 501.6,500.0 505.0,500.0 508.3,500.0 511.6,500.0 514.9,500.0 518.2,500.0 521.5,500.0 524.8,500.0 528.1,500.0 531.4,500.0 534.7,500.0 538.0,500.0 541.3,500.0 544.6,500.0 547.9,500.0 551.2,500.0 554.5,500.0 557.8,500.0 561.2,500.0 564.5,500.0 567.8,500.0 571.1,500.0 574.4,500.0 577.7,500.0 581.0,500.0 584.3,500.0 587.6,500.0 590.9,500.0 594.2,500.0 597.5,500.0 600.8,500.0 604.1,500.0 607.4,500.0 610.7,500.0 614.0,500.0 617.3,500.0 620.7,500.0 624.0,487.6 627.3,483.5 630.6,495.9 633.9,495.9 637.2,483.5 640.5,495.9 643.8,500.0 647.1,500.0 650.4,500.0 653.7,500.0 657.0,500.0 660.3,500.0 663.6,500.0 666.9,500.0 670.2,500.0 673.5,500.0 676.8,500.0 680.2,500.0 683.5,500.0 686.8,500.0 690.1,500.0 693.4,500.0 696.7,500.0 700.0,500.0 703.3,500.0 706.6,495.9 709.9,495.9 713.2,495.9 716.5,495.9 719.8,500.0 723.1,500.0 726.4,500.0 729.7,483.5 733.0,495.9 736.4,500.0 739.7,500.0 743.0,500.0 746.3,500.0 749.6,500.0 752.9,500.0 756.2,500.0 759.5,500.0 762.8,500.0 766.1,500.0 769.4,500.0 772.7,500.0 776.0,500.0 779.3,500.0 782.6,500.0 785.9,500.0 789.2,500.0 792.5,500.0 795.9,500.0 799.2,500.0 802.5,500.0 805.8,500.0 809.1,500.0 812.4,500.0 815.7,500.0 819.0,500.0 822.3,500.0 825.6,500.0 828.9,500.0 832.2,500.0 835.5,500.0 838.8,500.0 842.1,500.0 845.4,500.0 848.7,500.0 852.0,500.0 855.4,500.0 858.7,500.0 862.0,500.0 865.3,500.0 868.6,500.0 871.9,500.0 875.2,500.0 878.5,500.0 881.8,500.0 885.1,500.0 888.4,500.0 891.7,500.0 895.0,500.0 898.3,500.0 901.6,500.0 904.9,500.0 908.2,500.0 911.5,500.0 914.9,500.0 918.2,500.0 921.5,500.0 924.8,500.0 928.1,500.0 931.4,500.0 934.7,500.0 938.0,500.0 941.3,500.0 944.6,500.0 947.9,500.0 951.2,500.0 954.5,500.0 957.8,500.0 961.1,500.0 964.4,500.0 967.7,500.0 971.1,500.0 974.4,467.0 977.7,479.4 981.0,500.0 984.3,500.0 987.6,500.0 990.9,500.0 994.2,500.0 997.5,500.0 1000.8,500.0 1004.1,500.0 1007.4,500.0 1010.7,500.0 1014.0,500.0 1017.3,500.0 1020.6,500.0 1023.9,500.0 1027.2,500.0 1030.6,500.0 1033.9,500.0 1037.2,500.0 1040.5,500.0 1043.8,500.0 1047.1,500.0 1050.4,500.0 1053.7,500.0 1057.0,500.0 1060.3,500.0 1063.6,500.0 1066.9,500.0 1070.2,500.0 1073.5,500.0 1076.8,500.0 1080.1,500.0 1083.4,500.0 1086.7,450.6 1090.1,491.8 1093.4,483.5 1096.7,458.8 1100.0,475.3 1103.3,479.4 1106.6,471.2 1109.9,471.2 1113.2,462.9 1116.5,450.6 1119.8,479.4 1123.1,471.2 1126.4,475.3 1129.7,475.3 1133.0,479.4 1136.3,487.6 1139.6,442.3 1142.9,483.5 1146.2,458.8 1149.6,454.7 1152.9,491.8 1156.2,462.9 1159.5,368.1 1162.8,364.0 1166.1,392.9 1169.4,425.8 1172.7,446.4 1176.0,454.7 1176.0,475.3 1172.7,487.6 1169.4,475.3 1166.1,467.0 1162.8,491.8 1159.5,479.4 1156.2,475.3 1152.9,491.8 1149.6,462.9 1146.2,483.5 1142.9,491.8 1139.6,471.2 1136.3,487.6 1133.0,487.6 1129.7,483.5 1126.4,479.4 1123.1,483.5 1119.8,479.4 1116.5,450.6 1113.2,487.6 1109.9,471.2 1106.6,471.2 1103.3,479.4 1100.0,475.3 1096.7,458.8 1093.4,483.5 1090.1,491.8 1086.7,450.6 1083.4,500.0 1080.1,500.0 1076.8,500.0 1073.5,500.0 1070.2,500.0 1066.9,500.0 1063.6,500.0 1060.3,500.0 1057.0,500.0 1053.7,500.0 1050.4,500.0 1047.1,500.0 1043.8,500.0 1040.5,500.0 1037.2,500.0 1033.9,500.0 1030.6,500.0 1027.2,500.0 1023.9,500.0 1020.6,500.0 1017.3,500.0 1014.0,500.0 1010.7,500.0 1007.4,500.0 1004.1,500.0 1000.8,500.0 997.5,500.0 994.2,500.0 990.9,500.0 987.6,500.0 984.3,500.0 981.0,500.0 977.7,479.4 974.4,467.0 971.1,500.0 967.7,500.0 964.4,500.0 961.1,500.0 957.8,500.0 954.5,500.0 951.2,500.0 947.9,500.0 944.6,500.0 941.3,500.0 938.0,500.0 934.7,500.0 931.4,500.0 928.1,500.0 924.8,500.0 921.5,500.0 918.2,500.0 914.9,500.0 911.5,500.0 908.2,500.0 904.9,500.0 901.6,500.0 898.3,500.0 895.0,500.0 891.7,500.0 888.4,500.0 885.1,500.0 881.8,500.0 878.5,500.0 875.2,500.0 871.9,500.0 868.6,500.0 865.3,500.0 862.0,500.0 858.7,500.0 855.4,500.0 852.0,500.0 848.7,500.0 845.4,500.0 842.1,500.0 838.8,500.0 835.5,500.0 832.2,500.0 828.9,500.0 825.6,500.0 822.3,500.0 819.0,500.0 815.7,500.0 812.4,500.0 809.1,500.0 805.8,500.0 802.5,500.0 799.2,500.0 795.9,500.0 792.5,500.0 789.2,500.0 785.9,500.0 782.6,500.0 779.3,500.0 776.0,500.0 772.7,500.0 769.4,500.0 766.1,500.0 762.8,500.0 759.5,500.0 756.2,500.0 752.9,500.0 749.6,500.0 746.3,500.0 743.0,500.0 739.7,500.0 736.4,500.0 733.0,495.9 729.7,483.5 726.4,500.0 723.1,500.0 719.8,500.0 716.5,495.9 713.2,495.9 709.9,495.9 706.6,495.9 703.3,500.0 700.0,500.0 696.7,500.0 693.4,500.0 690.1,500.0 686.8,500.0 683.5,500.0 680.2,500.0 676.8,500.0 673.5,500.0 670.2,500.0 666.9,500.0 663.6,500.0 660.3,500.0 657.0,500.0 653.7,500.0 650.4,500.0 647.1,500.0 643.8,500.0 640.5,495.9 637.2,483.5 633.9,495.9 630.6,495.9 627.3,483.5 624.0,487.6 620.7,500.0 617.3,500.0 614.0,500.0 610.7,500.0 607.4,500.0 604.1,500.0 600.8,500.0 597.5,500.0 594.2,500.0 590.9,500.0 587.6,500.0 584.3,500.0 581.0,500.0 577.7,500.0 574.4,500.0 571.1,500.0 567.8,500.0 564.5,500.0 561.2,500.0 557.8,500.0 554.5,500.0 551.2,500.0 547.9,500.0 544.6,500.0 541.3,500.0 538.0,500.0 534.7,500.0 531.4,500.0 528.1,500.0 524.8,500.0 521.5,500.0 518.2,500.0 514.9,500.0 511.6,500.0 508.3,500.0 505.0,500.0 501.6,500.0 498.3,500.0 495.0,500.0 491.7,500.0 488.4,500.0 485.1,500.0 481.8,500.0 478.5,500.0 475.2,500.0 471.9,500.0 468.6,500.0 465.3,500.0 462.0,500.0 458.7,500.0 455.4,500.0 452.1,500.0 448.8,500.0 445.5,500.0 442.1,500.0 438.8,500.0 435.5,500.0 432.2,500.0 428.9,500.0 425.6,500.0 422.3,500.0 419.0,500.0 415.7,500.0 412.4,500.0 409.1,500.0 405.8,500.0 402.5,500.0 399.2,500.0 395.9,500.0 392.6,500.0 389.3,500.0 386.0,500.0 382.6,500.0 379.3,500.0 376.0,500.0 372.7,500.0 369.4,500.0 366.1,500.0 362.8,500.0 359.5,500.0 356.2,500.0 352.9,500.0 349.6,500.0 346.3,500.0 343.0,500.0 339.7,500.0 336.4,500.0 333.1,500.0 329.8,500.0 326.5,500.0 323.1,500.0 319.8,500.0 316.5,500.0 313.2,500.0 309.9,500.0 306.6,500.0 303.3,500.0 300.0,500.0 296.7,500.0 293.4,500.0 290.1,500.0 286.8,500.0 283.5,500.0 280.2,500.0 276.9,500.0 273.6,500.0 270.3,495.9 266.9,500.0 263.6,500.0 260.3,500.0 257.0,500.0 253.7,500.0 250.4,500.0 247.1,495.9 243.8,500.0 240.5,500.0 237.2,500.0 233.9,500.0 230.6,500.0 227.3,500.0 224.0,500.0 220.7,500.0 217.4,500.0 214.1,500.0 210.8,495.9 207.4,500.0 204.1,495.9 200.8,479.4 197.5,475.3 194.2,458.8 190.9,479.4 187.6,471.2 184.3,467.0 181.0,446.4 177.7,479.4 174.4,438.2 171.1,454.7 167.8,467.0 164.5,479.4 161.2,450.6 157.9,458.8 154.6,462.9 151.3,462.9 147.9,471.2 144.6,450.6 141.3,450.6 138.0,500.0 134.7,467.0 131.4,462.9 128.1,471.2 124.8,467.0 121.5,467.0 118.2,467.0 114.9,467.0 111.6,475.3 108.3,446.4 105.0,446.4 101.7,438.2 98.4,483.5 95.1,467.0 91.8,450.6 88.4,446.4 85.1,454.7 81.8,335.2 78.5,442.3 75.2,458.8 71.9,471.2 68.6,421.7 65.3,434.1 62.0,487.6" fill="#3fb950" fill-opacity="0.75"/>
<polyline points="62.0,487.6 65.3,460.9 68.6,447.8 71.9,453.6 75.2,454.7 78.5,452.6 81.8,435.8 85.1,431.1 88.4,432.9 91.8,437.0 95.1,436.4 98.4,440.0 101.7,439.4 105.0,455.3 108.3,454.1 111.6,458.2 114.9,460.6 118.2,460.6 121.5,458.2 124.8,462.3 128.1,465.9 131.4,468.2 134.7,467.0 138.0,471.7 141.3,469.4 144.6,467.0 147.9,467.6 151.3,466.4 154.6,466.4 157.9,465.3 161.2,458.2 164.5,462.3 167.8,464.7 171.1,462.3 174.4,458.8 177.7,461.2 181.0,459.4 184.3,461.7 187.6,460.6 190.9,462.3 194.2,462.9 197.5,468.2 200.8,468.2 204.1,475.3 207.4,480.0 210.8,483.5 214.1,486.5 217.4,492.3 220.7,495.9 224.0,498.8 227.3,499.4 230.6,499.4 233.9,500.0 237.2,500.0 240.5,500.0 243.8,500.0 247.1,499.4 250.4,499.4 253.7,499.4 257.0,499.4 260.3,499.4 263.6,499.4 266.9,499.4 270.3,499.4 273.6,499.4 276.9,499.4 280.2,499.4 283.5,499.4 286.8,499.4 290.1,499.4 293.4,500.0 296.7,500.0 300.0,500.0 303.3,500.0 306.6,500.0 309.9,500.0 313.2,500.0 316.5,500.0 319.8,500.0 323.1,500.0 326.5,500.0 329.8,500.0 333.1,500.0 336.4,500.0 339.7,500.0 343.0,500.0 346.3,500.0 349.6,500.0 352.9,500.0 356.2,500.0 359.5,500.0 362.8,500.0 366.1,500.0 369.4,500.0 372.7,500.0 376.0,500.0 379.3,500.0 382.6,500.0 386.0,500.0 389.3,500.0 392.6,500.0 395.9,500.0 399.2,500.0 402.5,500.0 405.8,500.0 409.1,500.0 412.4,500.0 415.7,500.0 419.0,500.0 422.3,500.0 425.6,500.0 428.9,500.0 432.2,500.0 435.5,500.0 438.8,500.0 442.1,500.0 445.5,500.0 448.8,500.0 452.1,500.0 455.4,500.0 458.7,500.0 462.0,500.0 465.3,500.0 468.6,500.0 471.9,500.0 475.2,500.0 478.5,500.0 481.8,500.0 485.1,500.0 488.4,500.0 491.7,500.0 495.0,500.0 498.3,500.0 501.6,500.0 505.0,500.0 508.3,500.0 511.6,500.0 514.9,500.0 518.2,500.0 521.5,500.0 524.8,500.0 528.1,500.0 531.4,500.0 534.7,500.0 538.0,500.0 541.3,500.0 544.6,500.0 547.9,500.0 551.2,500.0 554.5,500.0 557.8,500.0 561.2,500.0 564.5,500.0 567.8,500.0 571.1,500.0 574.4,500.0 577.7,500.0 581.0,500.0 584.3,500.0 587.6,500.0 590.9,500.0 594.2,500.0 597.5,500.0 600.8,500.0 604.1,500.0 607.4,500.0 610.7,500.0 614.0,500.0 617.3,500.0 620.7,500.0 624.0,498.2 627.3,495.9 630.6,495.3 633.9,494.7 637.2,492.3 640.5,491.8 643.8,491.8 647.1,493.5 650.4,495.9 653.7,496.5 657.0,497.1 660.3,499.4 663.6,500.0 666.9,500.0 670.2,500.0 673.5,500.0 676.8,500.0 680.2,500.0 683.5,500.0 686.8,500.0 690.1,500.0 693.4,500.0 696.7,500.0 700.0,500.0 703.3,500.0 706.6,499.4 709.9,498.8 713.2,498.2 716.5,497.6 719.8,497.6 723.1,497.6 726.4,497.6 729.7,495.9 733.0,495.9 736.4,496.5 739.7,497.1 743.0,497.1 746.3,497.1 749.6,497.1 752.9,499.4 756.2,500.0 759.5,500.0 762.8,500.0 766.1,500.0 769.4,500.0 772.7,500.0 776.0,500.0 779.3,500.0 782.6,500.0 785.9,500.0 789.2,500.0 792.5,500.0 795.9,500.0 799.2,500.0 802.5,500.0 805.8,500.0 809.1,500.0 812.4,500.0 815.7,500.0 819.0,500.0 822.3,500.0 825.6,500.0 828.9,500.0 832.2,500.0 835.5,500.0 838.8,500.0 842.1,500.0 845.4,500.0 848.7,500.0 852.0,500.0 855.4,500.0 858.7,500.0 862.0,500.0 865.3,500.0 868.6,500.0 871.9,500.0 875.2,500.0 878.5,500.0 881.8,500.0 885.1,500.0 888.4,500.0 891.7,500.0 895.0,500.0 898.3,500.0 901.6,500.0 904.9,500.0 908.2,500.0 911.5,500.0 914.9,500.0 918.2,500.0 921.5,500.0 924.8,500.0 928.1,500.0 931.4,500.0 934.7,500.0 938.0,500.0 941.3,500.0 944.6,500.0 947.9,500.0 951.2,500.0 954.5,500.0 957.8,500.0 961.1,500.0 964.4,500.0 967.7,500.0 971.1,500.0 974.4,495.3 977.7,492.3 981.0,492.3 984.3,492.3 987.6,492.3 990.9,492.3 994.2,492.3 997.5,497.1 1000.8,500.0 1004.1,500.0 1007.4,500.0 1010.7,500.0 1014.0,500.0 1017.3,500.0 1020.6,500.0 1023.9,500.0 1027.2,500.0 1030.6,500.0 1033.9,500.0 1037.2,500.0 1040.5,500.0 1043.8,500.0 1047.1,500.0 1050.4,500.0 1053.7,500.0 1057.0,500.0 1060.3,500.0 1063.6,500.0 1066.9,500.0 1070.2,500.0 1073.5,500.0 1076.8,500.0 1080.1,500.0 1083.4,500.0 1086.7,492.9 1090.1,491.8 1093.4,489.4 1096.7,483.5 1100.0,480.0 1103.3,477.0 1106.6,472.9 1109.9,475.9 1113.2,471.7 1116.5,467.0 1119.8,470.0 1123.1,469.4 1126.4,468.8 1129.7,469.4 1133.0,470.6 1136.3,474.1 1139.6,472.9 1142.9,473.5 1146.2,471.7 1149.6,468.8 1152.9,471.2 1156.2,468.8 1159.5,451.7 1162.8,440.5 1166.1,427.6 1169.4,422.9 1172.7,421.7 1176.0,416.4" fill="none" stroke="#f0f6fc" stroke-width="1.6" stroke-dasharray="6 4"/>
<line x1="62.0" y1="62" x2="62.0" y2="270" stroke="#21262d" stroke-width="1"/>
<line x1="62.0" y1="322" x2="62.0" y2="500" stroke="#21262d" stroke-width="1"/>
<text x="62.0" y="518" text-anchor="middle" font-size="11" fill="#8b949e">Oct 25</text>
<line x1="164.5" y1="62" x2="164.5" y2="270" stroke="#21262d" stroke-width="1"/>
<line x1="164.5" y1="322" x2="164.5" y2="500" stroke="#21262d" stroke-width="1"/>
<text x="164.5" y="518" text-anchor="middle" font-size="11" fill="#8b949e">Nov 25</text>
<line x1="263.6" y1="62" x2="263.6" y2="270" stroke="#21262d" stroke-width="1"/>
<line x1="263.6" y1="322" x2="263.6" y2="500" stroke="#21262d" stroke-width="1"/>
<text x="263.6" y="518" text-anchor="middle" font-size="11" fill="#8b949e">Dec 25</text>
<line x1="366.1" y1="62" x2="366.1" y2="270" stroke="#21262d" stroke-width="1"/>
<line x1="366.1" y1="322" x2="366.1" y2="500" stroke="#21262d" stroke-width="1"/>
<text x="366.1" y="518" text-anchor="middle" font-size="11" fill="#8b949e">Jan 26</text>
<line x1="468.6" y1="62" x2="468.6" y2="270" stroke="#21262d" stroke-width="1"/>
<line x1="468.6" y1="322" x2="468.6" y2="500" stroke="#21262d" stroke-width="1"/>
<text x="468.6" y="518" text-anchor="middle" font-size="11" fill="#8b949e">Feb 26</text>
<line x1="561.2" y1="62" x2="561.2" y2="270" stroke="#21262d" stroke-width="1"/>
<line x1="561.2" y1="322" x2="561.2" y2="500" stroke="#21262d" stroke-width="1"/>
<text x="561.2" y="518" text-anchor="middle" font-size="11" fill="#8b949e">Mar 26</text>
<line x1="663.6" y1="62" x2="663.6" y2="270" stroke="#21262d" stroke-width="1"/>
<line x1="663.6" y1="322" x2="663.6" y2="500" stroke="#21262d" stroke-width="1"/>
<text x="663.6" y="518" text-anchor="middle" font-size="11" fill="#8b949e">Apr 26</text>
<line x1="762.8" y1="62" x2="762.8" y2="270" stroke="#21262d" stroke-width="1"/>
<line x1="762.8" y1="322" x2="762.8" y2="500" stroke="#21262d" stroke-width="1"/>
<text x="762.8" y="518" text-anchor="middle" font-size="11" fill="#8b949e">May 26</text>
<line x1="865.3" y1="62" x2="865.3" y2="270" stroke="#21262d" stroke-width="1"/>
<line x1="865.3" y1="322" x2="865.3" y2="500" stroke="#21262d" stroke-width="1"/>
<text x="865.3" y="518" text-anchor="middle" font-size="11" fill="#8b949e">Jun 26</text>
<line x1="964.4" y1="62" x2="964.4" y2="270" stroke="#21262d" stroke-width="1"/>
<line x1="964.4" y1="322" x2="964.4" y2="500" stroke="#21262d" stroke-width="1"/>
<text x="964.4" y="518" text-anchor="middle" font-size="11" fill="#8b949e">Jul 26</text>
<line x1="1066.9" y1="62" x2="1066.9" y2="270" stroke="#21262d" stroke-width="1"/>
<line x1="1066.9" y1="322" x2="1066.9" y2="500" stroke="#21262d" stroke-width="1"/>
<text x="1066.9" y="518" text-anchor="middle" font-size="11" fill="#8b949e">Aug 26</text>
<line x1="1169.4" y1="62" x2="1169.4" y2="270" stroke="#21262d" stroke-width="1"/>
<line x1="1169.4" y1="322" x2="1169.4" y2="500" stroke="#21262d" stroke-width="1"/>
<text x="1169.4" y="518" text-anchor="middle" font-size="11" fill="#8b949e">Sep 26</text>
<rect x="1006" y="530" width="12" height="12" rx="3" fill="#58a6ff" fill-opacity="0.7"/>
<text x="1024" y="540" font-size="11" fill="#c9d1d9">solves</text>
<rect x="1091" y="530" width="12" height="12" rx="3" fill="#3fb950" fill-opacity="0.7"/>
<text x="1109" y="540" font-size="11" fill="#c9d1d9">drills</text>
</svg>
